<mxfile host="app.diagrams.net" modified="2024-04-21T17:24:20.562Z" agent="Mozilla/5.0 (Windows NT 10.0; Win64; x64) AppleWebKit/537.36 (KHTML, like Gecko) Chrome/121.0.0.0 Safari/537.36 OPR/107.0.0.0" etag="KTTUjTf6UDEjgeL5_Txk" version="24.2.5" type="github">
  <diagram name="Page-1" id="XDN09dfMbkEmqPRKBXD4">
    <mxGraphModel dx="2136" dy="561" grid="1" gridSize="10" guides="1" tooltips="1" connect="1" arrows="1" fold="1" page="1" pageScale="1" pageWidth="827" pageHeight="1169" math="0" shadow="0">
      <root>
        <mxCell id="0" />
        <mxCell id="1" parent="0" />
        <mxCell id="mISCRe_RFVBFZnoGNRsq-1" value="Baches" style="shape=table;startSize=30;container=1;collapsible=1;childLayout=tableLayout;fixedRows=1;rowLines=0;fontStyle=1;align=center;resizeLast=1;labelBackgroundColor=none;rounded=1;fillColor=#F5AB50;strokeColor=#909090;fontColor=#1A1A1A;" parent="1" vertex="1">
          <mxGeometry x="1140" y="560" width="250" height="150" as="geometry" />
        </mxCell>
        <mxCell id="mISCRe_RFVBFZnoGNRsq-2" value="" style="shape=partialRectangle;collapsible=0;dropTarget=0;pointerEvents=0;fillColor=none;points=[[0,0.5],[1,0.5]];portConstraint=eastwest;top=0;left=0;right=0;bottom=1;labelBackgroundColor=none;rounded=1;strokeColor=#909090;fontColor=#1A1A1A;" parent="mISCRe_RFVBFZnoGNRsq-1" vertex="1">
          <mxGeometry y="30" width="250" height="30" as="geometry" />
        </mxCell>
        <mxCell id="mISCRe_RFVBFZnoGNRsq-3" value="PK" style="shape=partialRectangle;overflow=hidden;connectable=0;fillColor=none;top=0;left=0;bottom=0;right=0;fontStyle=1;labelBackgroundColor=none;rounded=1;strokeColor=#909090;fontColor=#1A1A1A;" parent="mISCRe_RFVBFZnoGNRsq-2" vertex="1">
          <mxGeometry width="30" height="30" as="geometry">
            <mxRectangle width="30" height="30" as="alternateBounds" />
          </mxGeometry>
        </mxCell>
        <mxCell id="mISCRe_RFVBFZnoGNRsq-4" value="id_baches" style="shape=partialRectangle;overflow=hidden;connectable=0;fillColor=none;top=0;left=0;bottom=0;right=0;align=left;spacingLeft=6;fontStyle=5;labelBackgroundColor=none;rounded=1;strokeColor=#909090;fontColor=#1A1A1A;" parent="mISCRe_RFVBFZnoGNRsq-2" vertex="1">
          <mxGeometry x="30" width="220" height="30" as="geometry">
            <mxRectangle width="220" height="30" as="alternateBounds" />
          </mxGeometry>
        </mxCell>
        <mxCell id="mISCRe_RFVBFZnoGNRsq-5" value="" style="shape=partialRectangle;collapsible=0;dropTarget=0;pointerEvents=0;fillColor=none;points=[[0,0.5],[1,0.5]];portConstraint=eastwest;top=0;left=0;right=0;bottom=0;labelBackgroundColor=none;rounded=1;strokeColor=#909090;fontColor=#1A1A1A;" parent="mISCRe_RFVBFZnoGNRsq-1" vertex="1">
          <mxGeometry y="60" width="250" height="30" as="geometry" />
        </mxCell>
        <mxCell id="mISCRe_RFVBFZnoGNRsq-6" value="FK" style="shape=partialRectangle;overflow=hidden;connectable=0;fillColor=none;top=0;left=0;bottom=0;right=0;labelBackgroundColor=none;rounded=1;strokeColor=#909090;fontColor=#1A1A1A;" parent="mISCRe_RFVBFZnoGNRsq-5" vertex="1">
          <mxGeometry width="30" height="30" as="geometry">
            <mxRectangle width="30" height="30" as="alternateBounds" />
          </mxGeometry>
        </mxCell>
        <mxCell id="mISCRe_RFVBFZnoGNRsq-7" value="categoría" style="shape=partialRectangle;overflow=hidden;connectable=0;fillColor=none;top=0;left=0;bottom=0;right=0;align=left;spacingLeft=6;labelBackgroundColor=none;rounded=1;strokeColor=#909090;fontColor=#1A1A1A;" parent="mISCRe_RFVBFZnoGNRsq-5" vertex="1">
          <mxGeometry x="30" width="220" height="30" as="geometry">
            <mxRectangle width="220" height="30" as="alternateBounds" />
          </mxGeometry>
        </mxCell>
        <mxCell id="mISCRe_RFVBFZnoGNRsq-11" value="" style="shape=partialRectangle;collapsible=0;dropTarget=0;pointerEvents=0;fillColor=none;points=[[0,0.5],[1,0.5]];portConstraint=eastwest;top=0;left=0;right=0;bottom=0;labelBackgroundColor=none;rounded=1;strokeColor=#909090;fontColor=#1A1A1A;" parent="mISCRe_RFVBFZnoGNRsq-1" vertex="1">
          <mxGeometry y="90" width="250" height="30" as="geometry" />
        </mxCell>
        <mxCell id="mISCRe_RFVBFZnoGNRsq-12" value="" style="shape=partialRectangle;overflow=hidden;connectable=0;fillColor=none;top=0;left=0;bottom=0;right=0;labelBackgroundColor=none;rounded=1;strokeColor=#909090;fontColor=#1A1A1A;" parent="mISCRe_RFVBFZnoGNRsq-11" vertex="1">
          <mxGeometry width="30" height="30" as="geometry">
            <mxRectangle width="30" height="30" as="alternateBounds" />
          </mxGeometry>
        </mxCell>
        <mxCell id="mISCRe_RFVBFZnoGNRsq-13" value="Fecha de reporte" style="shape=partialRectangle;overflow=hidden;connectable=0;fillColor=none;top=0;left=0;bottom=0;right=0;align=left;spacingLeft=6;labelBackgroundColor=none;rounded=1;strokeColor=#909090;fontColor=#1A1A1A;" parent="mISCRe_RFVBFZnoGNRsq-11" vertex="1">
          <mxGeometry x="30" width="220" height="30" as="geometry">
            <mxRectangle width="220" height="30" as="alternateBounds" />
          </mxGeometry>
        </mxCell>
        <mxCell id="mISCRe_RFVBFZnoGNRsq-14" value="" style="shape=partialRectangle;collapsible=0;dropTarget=0;pointerEvents=0;fillColor=none;points=[[0,0.5],[1,0.5]];portConstraint=eastwest;top=0;left=0;right=0;bottom=0;labelBackgroundColor=none;rounded=1;strokeColor=#909090;fontColor=#1A1A1A;" parent="mISCRe_RFVBFZnoGNRsq-1" vertex="1">
          <mxGeometry y="120" width="250" height="30" as="geometry" />
        </mxCell>
        <mxCell id="mISCRe_RFVBFZnoGNRsq-15" value="" style="shape=partialRectangle;overflow=hidden;connectable=0;fillColor=none;top=0;left=0;bottom=0;right=0;labelBackgroundColor=none;rounded=1;strokeColor=#909090;fontColor=#1A1A1A;" parent="mISCRe_RFVBFZnoGNRsq-14" vertex="1">
          <mxGeometry width="30" height="30" as="geometry">
            <mxRectangle width="30" height="30" as="alternateBounds" />
          </mxGeometry>
        </mxCell>
        <mxCell id="mISCRe_RFVBFZnoGNRsq-16" value="Fecha de reparación" style="shape=partialRectangle;overflow=hidden;connectable=0;fillColor=none;top=0;left=0;bottom=0;right=0;align=left;spacingLeft=6;labelBackgroundColor=none;rounded=1;strokeColor=#909090;fontColor=#1A1A1A;" parent="mISCRe_RFVBFZnoGNRsq-14" vertex="1">
          <mxGeometry x="30" width="220" height="30" as="geometry">
            <mxRectangle width="220" height="30" as="alternateBounds" />
          </mxGeometry>
        </mxCell>
        <mxCell id="mISCRe_RFVBFZnoGNRsq-17" value="Ubicacion_bache" style="shape=table;startSize=30;container=1;collapsible=1;childLayout=tableLayout;fixedRows=1;rowLines=0;fontStyle=1;align=center;resizeLast=1;labelBackgroundColor=none;rounded=1;fillColor=#F5AB50;strokeColor=#909090;fontColor=#1A1A1A;" parent="1" vertex="1">
          <mxGeometry x="1150" y="270" width="250" height="160" as="geometry" />
        </mxCell>
        <mxCell id="mISCRe_RFVBFZnoGNRsq-18" value="" style="shape=partialRectangle;collapsible=0;dropTarget=0;pointerEvents=0;fillColor=none;points=[[0,0.5],[1,0.5]];portConstraint=eastwest;top=0;left=0;right=0;bottom=1;labelBackgroundColor=none;rounded=1;strokeColor=#909090;fontColor=#1A1A1A;" parent="mISCRe_RFVBFZnoGNRsq-17" vertex="1">
          <mxGeometry y="30" width="250" height="30" as="geometry" />
        </mxCell>
        <mxCell id="mISCRe_RFVBFZnoGNRsq-19" value="PK" style="shape=partialRectangle;overflow=hidden;connectable=0;fillColor=none;top=0;left=0;bottom=0;right=0;fontStyle=1;labelBackgroundColor=none;rounded=1;strokeColor=#909090;fontColor=#1A1A1A;" parent="mISCRe_RFVBFZnoGNRsq-18" vertex="1">
          <mxGeometry width="30" height="30" as="geometry">
            <mxRectangle width="30" height="30" as="alternateBounds" />
          </mxGeometry>
        </mxCell>
        <mxCell id="mISCRe_RFVBFZnoGNRsq-20" value="id_ubicacion_bache" style="shape=partialRectangle;overflow=hidden;connectable=0;fillColor=none;top=0;left=0;bottom=0;right=0;align=left;spacingLeft=6;fontStyle=5;labelBackgroundColor=none;rounded=1;strokeColor=#909090;fontColor=#1A1A1A;" parent="mISCRe_RFVBFZnoGNRsq-18" vertex="1">
          <mxGeometry x="30" width="220" height="30" as="geometry">
            <mxRectangle width="220" height="30" as="alternateBounds" />
          </mxGeometry>
        </mxCell>
        <mxCell id="mISCRe_RFVBFZnoGNRsq-21" value="" style="shape=partialRectangle;collapsible=0;dropTarget=0;pointerEvents=0;fillColor=none;points=[[0,0.5],[1,0.5]];portConstraint=eastwest;top=0;left=0;right=0;bottom=0;labelBackgroundColor=none;rounded=1;strokeColor=#909090;fontColor=#1A1A1A;" parent="mISCRe_RFVBFZnoGNRsq-17" vertex="1">
          <mxGeometry y="60" width="250" height="30" as="geometry" />
        </mxCell>
        <mxCell id="mISCRe_RFVBFZnoGNRsq-22" value="FK" style="shape=partialRectangle;overflow=hidden;connectable=0;fillColor=none;top=0;left=0;bottom=0;right=0;labelBackgroundColor=none;rounded=1;strokeColor=#909090;fontColor=#1A1A1A;" parent="mISCRe_RFVBFZnoGNRsq-21" vertex="1">
          <mxGeometry width="30" height="30" as="geometry">
            <mxRectangle width="30" height="30" as="alternateBounds" />
          </mxGeometry>
        </mxCell>
        <mxCell id="mISCRe_RFVBFZnoGNRsq-23" value="id_baches" style="shape=partialRectangle;overflow=hidden;connectable=0;fillColor=none;top=0;left=0;bottom=0;right=0;align=left;spacingLeft=6;labelBorderColor=none;labelBackgroundColor=none;rounded=1;strokeColor=#909090;fontColor=#1A1A1A;" parent="mISCRe_RFVBFZnoGNRsq-21" vertex="1">
          <mxGeometry x="30" width="220" height="30" as="geometry">
            <mxRectangle width="220" height="30" as="alternateBounds" />
          </mxGeometry>
        </mxCell>
        <mxCell id="mISCRe_RFVBFZnoGNRsq-24" value="" style="shape=partialRectangle;collapsible=0;dropTarget=0;pointerEvents=0;fillColor=none;points=[[0,0.5],[1,0.5]];portConstraint=eastwest;top=0;left=0;right=0;bottom=0;labelBackgroundColor=none;rounded=1;strokeColor=#909090;fontColor=#1A1A1A;" parent="mISCRe_RFVBFZnoGNRsq-17" vertex="1">
          <mxGeometry y="90" width="250" height="30" as="geometry" />
        </mxCell>
        <mxCell id="mISCRe_RFVBFZnoGNRsq-25" value="" style="shape=partialRectangle;overflow=hidden;connectable=0;fillColor=none;top=0;left=0;bottom=0;right=0;labelBackgroundColor=none;rounded=1;strokeColor=#909090;fontColor=#1A1A1A;" parent="mISCRe_RFVBFZnoGNRsq-24" vertex="1">
          <mxGeometry width="30" height="30" as="geometry">
            <mxRectangle width="30" height="30" as="alternateBounds" />
          </mxGeometry>
        </mxCell>
        <mxCell id="mISCRe_RFVBFZnoGNRsq-26" value="Latitud" style="shape=partialRectangle;overflow=hidden;connectable=0;fillColor=none;top=0;left=0;bottom=0;right=0;align=left;spacingLeft=6;labelBackgroundColor=none;rounded=1;strokeColor=#909090;fontColor=#1A1A1A;" parent="mISCRe_RFVBFZnoGNRsq-24" vertex="1">
          <mxGeometry x="30" width="220" height="30" as="geometry">
            <mxRectangle width="220" height="30" as="alternateBounds" />
          </mxGeometry>
        </mxCell>
        <mxCell id="mISCRe_RFVBFZnoGNRsq-27" value="" style="shape=partialRectangle;collapsible=0;dropTarget=0;pointerEvents=0;fillColor=none;points=[[0,0.5],[1,0.5]];portConstraint=eastwest;top=0;left=0;right=0;bottom=0;labelBackgroundColor=none;rounded=1;strokeColor=#909090;fontColor=#1A1A1A;" parent="mISCRe_RFVBFZnoGNRsq-17" vertex="1">
          <mxGeometry y="120" width="250" height="30" as="geometry" />
        </mxCell>
        <mxCell id="mISCRe_RFVBFZnoGNRsq-28" value="" style="shape=partialRectangle;overflow=hidden;connectable=0;fillColor=none;top=0;left=0;bottom=0;right=0;labelBackgroundColor=none;rounded=1;strokeColor=#909090;fontColor=#1A1A1A;" parent="mISCRe_RFVBFZnoGNRsq-27" vertex="1">
          <mxGeometry width="30" height="30" as="geometry">
            <mxRectangle width="30" height="30" as="alternateBounds" />
          </mxGeometry>
        </mxCell>
        <mxCell id="mISCRe_RFVBFZnoGNRsq-29" value="Longitud" style="shape=partialRectangle;overflow=hidden;connectable=0;fillColor=none;top=0;left=0;bottom=0;right=0;align=left;spacingLeft=6;labelBackgroundColor=none;rounded=1;strokeColor=#909090;fontColor=#1A1A1A;" parent="mISCRe_RFVBFZnoGNRsq-27" vertex="1">
          <mxGeometry x="30" width="220" height="30" as="geometry">
            <mxRectangle width="220" height="30" as="alternateBounds" />
          </mxGeometry>
        </mxCell>
        <mxCell id="mISCRe_RFVBFZnoGNRsq-30" value="Calles" style="shape=table;startSize=30;container=1;collapsible=1;childLayout=tableLayout;fixedRows=1;rowLines=0;fontStyle=1;align=center;resizeLast=1;labelBackgroundColor=none;rounded=1;fillColor=#F5AB50;strokeColor=#909090;fontColor=#1A1A1A;" parent="1" vertex="1">
          <mxGeometry x="750" y="240" width="270" height="180" as="geometry" />
        </mxCell>
        <mxCell id="mISCRe_RFVBFZnoGNRsq-31" value="" style="shape=partialRectangle;collapsible=0;dropTarget=0;pointerEvents=0;fillColor=none;points=[[0,0.5],[1,0.5]];portConstraint=eastwest;top=0;left=0;right=0;bottom=1;labelBackgroundColor=none;rounded=1;strokeColor=#909090;fontColor=#1A1A1A;" parent="mISCRe_RFVBFZnoGNRsq-30" vertex="1">
          <mxGeometry y="30" width="270" height="30" as="geometry" />
        </mxCell>
        <mxCell id="mISCRe_RFVBFZnoGNRsq-32" value="PK" style="shape=partialRectangle;overflow=hidden;connectable=0;fillColor=none;top=0;left=0;bottom=0;right=0;fontStyle=1;labelBackgroundColor=none;rounded=1;strokeColor=#909090;fontColor=#1A1A1A;" parent="mISCRe_RFVBFZnoGNRsq-31" vertex="1">
          <mxGeometry width="30" height="30" as="geometry">
            <mxRectangle width="30" height="30" as="alternateBounds" />
          </mxGeometry>
        </mxCell>
        <mxCell id="mISCRe_RFVBFZnoGNRsq-33" value="id_calles" style="shape=partialRectangle;overflow=hidden;connectable=0;fillColor=none;top=0;left=0;bottom=0;right=0;align=left;spacingLeft=6;fontStyle=5;labelBackgroundColor=none;rounded=1;strokeColor=#909090;fontColor=#1A1A1A;" parent="mISCRe_RFVBFZnoGNRsq-31" vertex="1">
          <mxGeometry x="30" width="240" height="30" as="geometry">
            <mxRectangle width="240" height="30" as="alternateBounds" />
          </mxGeometry>
        </mxCell>
        <mxCell id="mISCRe_RFVBFZnoGNRsq-34" value="" style="shape=partialRectangle;collapsible=0;dropTarget=0;pointerEvents=0;fillColor=none;points=[[0,0.5],[1,0.5]];portConstraint=eastwest;top=0;left=0;right=0;bottom=0;labelBackgroundColor=none;rounded=1;strokeColor=#909090;fontColor=#1A1A1A;" parent="mISCRe_RFVBFZnoGNRsq-30" vertex="1">
          <mxGeometry y="60" width="270" height="30" as="geometry" />
        </mxCell>
        <mxCell id="mISCRe_RFVBFZnoGNRsq-35" value="" style="shape=partialRectangle;overflow=hidden;connectable=0;fillColor=none;top=0;left=0;bottom=0;right=0;labelBackgroundColor=none;rounded=1;strokeColor=#909090;fontColor=#1A1A1A;" parent="mISCRe_RFVBFZnoGNRsq-34" vertex="1">
          <mxGeometry width="30" height="30" as="geometry">
            <mxRectangle width="30" height="30" as="alternateBounds" />
          </mxGeometry>
        </mxCell>
        <mxCell id="mISCRe_RFVBFZnoGNRsq-36" value="Cordenadas_geograficas(latitud, longitud)" style="shape=partialRectangle;overflow=hidden;connectable=0;fillColor=none;top=0;left=0;bottom=0;right=0;align=left;spacingLeft=6;labelBackgroundColor=none;rounded=1;strokeColor=#909090;fontColor=#1A1A1A;" parent="mISCRe_RFVBFZnoGNRsq-34" vertex="1">
          <mxGeometry x="30" width="240" height="30" as="geometry">
            <mxRectangle width="240" height="30" as="alternateBounds" />
          </mxGeometry>
        </mxCell>
        <mxCell id="mISCRe_RFVBFZnoGNRsq-37" value="" style="shape=partialRectangle;collapsible=0;dropTarget=0;pointerEvents=0;fillColor=none;points=[[0,0.5],[1,0.5]];portConstraint=eastwest;top=0;left=0;right=0;bottom=0;labelBackgroundColor=none;rounded=1;strokeColor=#909090;fontColor=#1A1A1A;" parent="mISCRe_RFVBFZnoGNRsq-30" vertex="1">
          <mxGeometry y="90" width="270" height="20" as="geometry" />
        </mxCell>
        <mxCell id="mISCRe_RFVBFZnoGNRsq-38" value="FK" style="shape=partialRectangle;overflow=hidden;connectable=0;fillColor=none;top=0;left=0;bottom=0;right=0;labelBackgroundColor=none;rounded=1;strokeColor=#909090;fontColor=#1A1A1A;" parent="mISCRe_RFVBFZnoGNRsq-37" vertex="1">
          <mxGeometry width="30" height="20" as="geometry">
            <mxRectangle width="30" height="20" as="alternateBounds" />
          </mxGeometry>
        </mxCell>
        <mxCell id="mISCRe_RFVBFZnoGNRsq-39" value="id_ciudad" style="shape=partialRectangle;overflow=hidden;connectable=0;fillColor=none;top=0;left=0;bottom=0;right=0;align=left;spacingLeft=6;labelBackgroundColor=none;rounded=1;strokeColor=#909090;fontColor=#1A1A1A;" parent="mISCRe_RFVBFZnoGNRsq-37" vertex="1">
          <mxGeometry x="30" width="240" height="20" as="geometry">
            <mxRectangle width="240" height="20" as="alternateBounds" />
          </mxGeometry>
        </mxCell>
        <mxCell id="mISCRe_RFVBFZnoGNRsq-43" value="" style="shape=partialRectangle;collapsible=0;dropTarget=0;pointerEvents=0;fillColor=none;points=[[0,0.5],[1,0.5]];portConstraint=eastwest;top=0;left=0;right=0;bottom=0;labelBackgroundColor=none;rounded=1;strokeColor=#909090;fontColor=#1A1A1A;" parent="mISCRe_RFVBFZnoGNRsq-30" vertex="1">
          <mxGeometry y="110" width="270" height="30" as="geometry" />
        </mxCell>
        <mxCell id="mISCRe_RFVBFZnoGNRsq-44" value="FK" style="shape=partialRectangle;overflow=hidden;connectable=0;fillColor=none;top=0;left=0;bottom=0;right=0;labelBackgroundColor=none;rounded=1;strokeColor=#909090;fontColor=#1A1A1A;" parent="mISCRe_RFVBFZnoGNRsq-43" vertex="1">
          <mxGeometry width="30" height="30" as="geometry">
            <mxRectangle width="30" height="30" as="alternateBounds" />
          </mxGeometry>
        </mxCell>
        <mxCell id="mISCRe_RFVBFZnoGNRsq-45" value="id_ubicacion_baches" style="shape=partialRectangle;overflow=hidden;connectable=0;fillColor=none;top=0;left=0;bottom=0;right=0;align=left;spacingLeft=6;verticalAlign=middle;noLabel=0;labelBackgroundColor=none;rounded=1;strokeColor=#909090;fontColor=#1A1A1A;" parent="mISCRe_RFVBFZnoGNRsq-43" vertex="1">
          <mxGeometry x="30" width="240" height="30" as="geometry">
            <mxRectangle width="240" height="30" as="alternateBounds" />
          </mxGeometry>
        </mxCell>
        <mxCell id="_qoiSgvuRi4t9chzAt19-1" value="" style="shape=partialRectangle;collapsible=0;dropTarget=0;pointerEvents=0;fillColor=none;points=[[0,0.5],[1,0.5]];portConstraint=eastwest;top=0;left=0;right=0;bottom=0;labelBackgroundColor=none;rounded=1;strokeColor=#909090;fontColor=#1A1A1A;" parent="mISCRe_RFVBFZnoGNRsq-30" vertex="1">
          <mxGeometry y="140" width="270" height="30" as="geometry" />
        </mxCell>
        <mxCell id="_qoiSgvuRi4t9chzAt19-2" value="" style="shape=partialRectangle;overflow=hidden;connectable=0;fillColor=none;top=0;left=0;bottom=0;right=0;labelBackgroundColor=none;rounded=1;strokeColor=#909090;fontColor=#1A1A1A;" parent="_qoiSgvuRi4t9chzAt19-1" vertex="1">
          <mxGeometry width="30" height="30" as="geometry">
            <mxRectangle width="30" height="30" as="alternateBounds" />
          </mxGeometry>
        </mxCell>
        <mxCell id="_qoiSgvuRi4t9chzAt19-3" value="nombre" style="shape=partialRectangle;overflow=hidden;connectable=0;fillColor=none;top=0;left=0;bottom=0;right=0;align=left;spacingLeft=6;labelBackgroundColor=none;rounded=1;strokeColor=#909090;fontColor=#1A1A1A;" parent="_qoiSgvuRi4t9chzAt19-1" vertex="1">
          <mxGeometry x="30" width="240" height="30" as="geometry">
            <mxRectangle width="240" height="30" as="alternateBounds" />
          </mxGeometry>
        </mxCell>
        <mxCell id="mISCRe_RFVBFZnoGNRsq-46" value="Categorias" style="shape=table;startSize=30;container=1;collapsible=1;childLayout=tableLayout;fixedRows=1;rowLines=0;fontStyle=1;align=center;resizeLast=1;labelBackgroundColor=none;rounded=1;fillColor=#F5AB50;strokeColor=#909090;fontColor=#1A1A1A;" parent="1" vertex="1">
          <mxGeometry x="1540" y="400" width="250" height="220" as="geometry" />
        </mxCell>
        <mxCell id="mISCRe_RFVBFZnoGNRsq-47" value="" style="shape=partialRectangle;collapsible=0;dropTarget=0;pointerEvents=0;fillColor=none;points=[[0,0.5],[1,0.5]];portConstraint=eastwest;top=0;left=0;right=0;bottom=1;labelBackgroundColor=none;rounded=1;strokeColor=#909090;fontColor=#1A1A1A;" parent="mISCRe_RFVBFZnoGNRsq-46" vertex="1">
          <mxGeometry y="30" width="250" height="30" as="geometry" />
        </mxCell>
        <mxCell id="mISCRe_RFVBFZnoGNRsq-48" value="PK" style="shape=partialRectangle;overflow=hidden;connectable=0;fillColor=none;top=0;left=0;bottom=0;right=0;fontStyle=1;labelBackgroundColor=none;rounded=1;strokeColor=#909090;fontColor=#1A1A1A;" parent="mISCRe_RFVBFZnoGNRsq-47" vertex="1">
          <mxGeometry width="30" height="30" as="geometry">
            <mxRectangle width="30" height="30" as="alternateBounds" />
          </mxGeometry>
        </mxCell>
        <mxCell id="mISCRe_RFVBFZnoGNRsq-49" value="id_Categorias" style="shape=partialRectangle;overflow=hidden;connectable=0;fillColor=none;top=0;left=0;bottom=0;right=0;align=left;spacingLeft=6;fontStyle=5;labelBackgroundColor=none;rounded=1;strokeColor=#909090;fontColor=#1A1A1A;" parent="mISCRe_RFVBFZnoGNRsq-47" vertex="1">
          <mxGeometry x="30" width="220" height="30" as="geometry">
            <mxRectangle width="220" height="30" as="alternateBounds" />
          </mxGeometry>
        </mxCell>
        <mxCell id="mISCRe_RFVBFZnoGNRsq-50" value="" style="shape=partialRectangle;collapsible=0;dropTarget=0;pointerEvents=0;fillColor=none;points=[[0,0.5],[1,0.5]];portConstraint=eastwest;top=0;left=0;right=0;bottom=0;labelBackgroundColor=none;rounded=1;strokeColor=#909090;fontColor=#1A1A1A;" parent="mISCRe_RFVBFZnoGNRsq-46" vertex="1">
          <mxGeometry y="60" width="250" height="30" as="geometry" />
        </mxCell>
        <mxCell id="mISCRe_RFVBFZnoGNRsq-51" value="" style="shape=partialRectangle;overflow=hidden;connectable=0;fillColor=none;top=0;left=0;bottom=0;right=0;labelBackgroundColor=none;rounded=1;strokeColor=#909090;fontColor=#1A1A1A;" parent="mISCRe_RFVBFZnoGNRsq-50" vertex="1">
          <mxGeometry width="30" height="30" as="geometry">
            <mxRectangle width="30" height="30" as="alternateBounds" />
          </mxGeometry>
        </mxCell>
        <mxCell id="mISCRe_RFVBFZnoGNRsq-52" value="Perimetro (m^2)" style="shape=partialRectangle;overflow=hidden;connectable=0;fillColor=none;top=0;left=0;bottom=0;right=0;align=left;spacingLeft=6;labelBackgroundColor=none;rounded=1;strokeColor=#909090;fontColor=#1A1A1A;" parent="mISCRe_RFVBFZnoGNRsq-50" vertex="1">
          <mxGeometry x="30" width="220" height="30" as="geometry">
            <mxRectangle width="220" height="30" as="alternateBounds" />
          </mxGeometry>
        </mxCell>
        <mxCell id="mISCRe_RFVBFZnoGNRsq-53" value="" style="shape=partialRectangle;collapsible=0;dropTarget=0;pointerEvents=0;fillColor=none;points=[[0,0.5],[1,0.5]];portConstraint=eastwest;top=0;left=0;right=0;bottom=0;labelBackgroundColor=none;rounded=1;strokeColor=#909090;fontColor=#1A1A1A;" parent="mISCRe_RFVBFZnoGNRsq-46" vertex="1">
          <mxGeometry y="90" width="250" height="40" as="geometry" />
        </mxCell>
        <mxCell id="mISCRe_RFVBFZnoGNRsq-54" value="" style="shape=partialRectangle;overflow=hidden;connectable=0;fillColor=none;top=0;left=0;bottom=0;right=0;labelBackgroundColor=none;rounded=1;strokeColor=#909090;fontColor=#1A1A1A;" parent="mISCRe_RFVBFZnoGNRsq-53" vertex="1">
          <mxGeometry width="30" height="40" as="geometry">
            <mxRectangle width="30" height="40" as="alternateBounds" />
          </mxGeometry>
        </mxCell>
        <mxCell id="mISCRe_RFVBFZnoGNRsq-55" value="profundidad (cm)" style="shape=partialRectangle;overflow=hidden;connectable=0;fillColor=none;top=0;left=0;bottom=0;right=0;align=left;spacingLeft=6;labelBackgroundColor=none;rounded=1;strokeColor=#909090;fontColor=#1A1A1A;" parent="mISCRe_RFVBFZnoGNRsq-53" vertex="1">
          <mxGeometry x="30" width="220" height="40" as="geometry">
            <mxRectangle width="220" height="40" as="alternateBounds" />
          </mxGeometry>
        </mxCell>
        <mxCell id="mISCRe_RFVBFZnoGNRsq-56" value="" style="shape=partialRectangle;collapsible=0;dropTarget=0;pointerEvents=0;fillColor=none;points=[[0,0.5],[1,0.5]];portConstraint=eastwest;top=0;left=0;right=0;bottom=0;labelBackgroundColor=none;rounded=1;strokeColor=#909090;fontColor=#1A1A1A;" parent="mISCRe_RFVBFZnoGNRsq-46" vertex="1">
          <mxGeometry y="130" width="250" height="30" as="geometry" />
        </mxCell>
        <mxCell id="mISCRe_RFVBFZnoGNRsq-57" value="" style="shape=partialRectangle;overflow=hidden;connectable=0;fillColor=none;top=0;left=0;bottom=0;right=0;labelBackgroundColor=none;rounded=1;strokeColor=#909090;fontColor=#1A1A1A;" parent="mISCRe_RFVBFZnoGNRsq-56" vertex="1">
          <mxGeometry width="30" height="30" as="geometry">
            <mxRectangle width="30" height="30" as="alternateBounds" />
          </mxGeometry>
        </mxCell>
        <mxCell id="mISCRe_RFVBFZnoGNRsq-58" value="No. incidentes" style="shape=partialRectangle;overflow=hidden;connectable=0;fillColor=none;top=0;left=0;bottom=0;right=0;align=left;spacingLeft=6;labelBackgroundColor=none;rounded=1;strokeColor=#909090;fontColor=#1A1A1A;" parent="mISCRe_RFVBFZnoGNRsq-56" vertex="1">
          <mxGeometry x="30" width="220" height="30" as="geometry">
            <mxRectangle width="220" height="30" as="alternateBounds" />
          </mxGeometry>
        </mxCell>
        <mxCell id="mISCRe_RFVBFZnoGNRsq-59" value="" style="shape=partialRectangle;collapsible=0;dropTarget=0;pointerEvents=0;fillColor=none;points=[[0,0.5],[1,0.5]];portConstraint=eastwest;top=0;left=0;right=0;bottom=0;labelBackgroundColor=none;rounded=1;strokeColor=#909090;fontColor=#1A1A1A;" parent="mISCRe_RFVBFZnoGNRsq-46" vertex="1">
          <mxGeometry y="160" width="250" height="30" as="geometry" />
        </mxCell>
        <mxCell id="mISCRe_RFVBFZnoGNRsq-60" value="" style="shape=partialRectangle;overflow=hidden;connectable=0;fillColor=none;top=0;left=0;bottom=0;right=0;labelBackgroundColor=none;rounded=1;strokeColor=#909090;fontColor=#1A1A1A;" parent="mISCRe_RFVBFZnoGNRsq-59" vertex="1">
          <mxGeometry width="30" height="30" as="geometry">
            <mxRectangle width="30" height="30" as="alternateBounds" />
          </mxGeometry>
        </mxCell>
        <mxCell id="mISCRe_RFVBFZnoGNRsq-61" value="" style="shape=partialRectangle;overflow=hidden;connectable=0;fillColor=none;top=0;left=0;bottom=0;right=0;align=left;spacingLeft=6;labelBackgroundColor=none;rounded=1;strokeColor=#909090;fontColor=#1A1A1A;" parent="mISCRe_RFVBFZnoGNRsq-59" vertex="1">
          <mxGeometry x="30" width="220" height="30" as="geometry">
            <mxRectangle width="220" height="30" as="alternateBounds" />
          </mxGeometry>
        </mxCell>
        <mxCell id="mISCRe_RFVBFZnoGNRsq-62" value="" style="shape=partialRectangle;collapsible=0;dropTarget=0;pointerEvents=0;fillColor=none;points=[[0,0.5],[1,0.5]];portConstraint=eastwest;top=0;left=0;right=0;bottom=0;labelBackgroundColor=none;rounded=1;strokeColor=#909090;fontColor=#1A1A1A;" parent="mISCRe_RFVBFZnoGNRsq-46" vertex="1">
          <mxGeometry y="190" width="250" height="30" as="geometry" />
        </mxCell>
        <mxCell id="mISCRe_RFVBFZnoGNRsq-63" value="" style="shape=partialRectangle;overflow=hidden;connectable=0;fillColor=none;top=0;left=0;bottom=0;right=0;labelBackgroundColor=none;rounded=1;strokeColor=#909090;fontColor=#1A1A1A;" parent="mISCRe_RFVBFZnoGNRsq-62" vertex="1">
          <mxGeometry width="30" height="30" as="geometry">
            <mxRectangle width="30" height="30" as="alternateBounds" />
          </mxGeometry>
        </mxCell>
        <mxCell id="mISCRe_RFVBFZnoGNRsq-64" value="" style="shape=partialRectangle;overflow=hidden;connectable=0;fillColor=none;top=0;left=0;bottom=0;right=0;align=left;spacingLeft=6;labelBackgroundColor=none;rounded=1;strokeColor=#909090;fontColor=#1A1A1A;" parent="mISCRe_RFVBFZnoGNRsq-62" vertex="1">
          <mxGeometry x="30" width="220" height="30" as="geometry">
            <mxRectangle width="220" height="30" as="alternateBounds" />
          </mxGeometry>
        </mxCell>
        <mxCell id="mISCRe_RFVBFZnoGNRsq-65" value="" style="edgeStyle=entityRelationEdgeStyle;fontSize=12;html=1;endArrow=ERoneToMany;startArrow=ERmandOne;rounded=1;exitX=0;exitY=0.5;exitDx=0;exitDy=0;entryX=1;entryY=0.5;entryDx=0;entryDy=0;labelBackgroundColor=none;fontColor=default;strokeColor=#182E3E;" parent="1" source="mISCRe_RFVBFZnoGNRsq-59" target="mISCRe_RFVBFZnoGNRsq-5" edge="1">
          <mxGeometry width="100" height="100" relative="1" as="geometry">
            <mxPoint x="1440" y="580" as="sourcePoint" />
            <mxPoint x="1440" y="430" as="targetPoint" />
          </mxGeometry>
        </mxCell>
        <mxCell id="mISCRe_RFVBFZnoGNRsq-66" value="Ubicacion_Usuario" style="shape=table;startSize=30;container=1;collapsible=1;childLayout=tableLayout;fixedRows=1;rowLines=0;fontStyle=1;align=center;resizeLast=1;labelBackgroundColor=none;rounded=1;fillColor=#F5AB50;strokeColor=#909090;fontColor=#1A1A1A;" parent="1" vertex="1">
          <mxGeometry x="750" y="610" width="250" height="220" as="geometry" />
        </mxCell>
        <mxCell id="mISCRe_RFVBFZnoGNRsq-67" value="" style="shape=partialRectangle;collapsible=0;dropTarget=0;pointerEvents=0;fillColor=none;points=[[0,0.5],[1,0.5]];portConstraint=eastwest;top=0;left=0;right=0;bottom=1;labelBackgroundColor=none;rounded=1;strokeColor=#909090;fontColor=#1A1A1A;" parent="mISCRe_RFVBFZnoGNRsq-66" vertex="1">
          <mxGeometry y="30" width="250" height="30" as="geometry" />
        </mxCell>
        <mxCell id="mISCRe_RFVBFZnoGNRsq-68" value="PK" style="shape=partialRectangle;overflow=hidden;connectable=0;fillColor=none;top=0;left=0;bottom=0;right=0;fontStyle=1;labelBackgroundColor=none;rounded=1;strokeColor=#909090;fontColor=#1A1A1A;" parent="mISCRe_RFVBFZnoGNRsq-67" vertex="1">
          <mxGeometry width="30" height="30" as="geometry">
            <mxRectangle width="30" height="30" as="alternateBounds" />
          </mxGeometry>
        </mxCell>
        <mxCell id="mISCRe_RFVBFZnoGNRsq-69" value="id_Ubicacion_Usuario" style="shape=partialRectangle;overflow=hidden;connectable=0;fillColor=none;top=0;left=0;bottom=0;right=0;align=left;spacingLeft=6;fontStyle=5;labelBackgroundColor=none;rounded=1;strokeColor=#909090;fontColor=#1A1A1A;" parent="mISCRe_RFVBFZnoGNRsq-67" vertex="1">
          <mxGeometry x="30" width="220" height="30" as="geometry">
            <mxRectangle width="220" height="30" as="alternateBounds" />
          </mxGeometry>
        </mxCell>
        <mxCell id="mISCRe_RFVBFZnoGNRsq-70" value="" style="shape=partialRectangle;collapsible=0;dropTarget=0;pointerEvents=0;fillColor=none;points=[[0,0.5],[1,0.5]];portConstraint=eastwest;top=0;left=0;right=0;bottom=0;labelBackgroundColor=none;rounded=1;strokeColor=#909090;fontColor=#1A1A1A;" parent="mISCRe_RFVBFZnoGNRsq-66" vertex="1">
          <mxGeometry y="60" width="250" height="30" as="geometry" />
        </mxCell>
        <mxCell id="mISCRe_RFVBFZnoGNRsq-71" value="FK" style="shape=partialRectangle;overflow=hidden;connectable=0;fillColor=none;top=0;left=0;bottom=0;right=0;labelBackgroundColor=none;rounded=1;strokeColor=#909090;fontColor=#1A1A1A;" parent="mISCRe_RFVBFZnoGNRsq-70" vertex="1">
          <mxGeometry width="30" height="30" as="geometry">
            <mxRectangle width="30" height="30" as="alternateBounds" />
          </mxGeometry>
        </mxCell>
        <mxCell id="mISCRe_RFVBFZnoGNRsq-72" value="Id_Usuario" style="shape=partialRectangle;overflow=hidden;connectable=0;fillColor=none;top=0;left=0;bottom=0;right=0;align=left;spacingLeft=6;labelBackgroundColor=none;rounded=1;strokeColor=#909090;fontColor=#1A1A1A;" parent="mISCRe_RFVBFZnoGNRsq-70" vertex="1">
          <mxGeometry x="30" width="220" height="30" as="geometry">
            <mxRectangle width="220" height="30" as="alternateBounds" />
          </mxGeometry>
        </mxCell>
        <mxCell id="mISCRe_RFVBFZnoGNRsq-73" value="" style="shape=partialRectangle;collapsible=0;dropTarget=0;pointerEvents=0;fillColor=none;points=[[0,0.5],[1,0.5]];portConstraint=eastwest;top=0;left=0;right=0;bottom=0;labelBackgroundColor=none;rounded=1;strokeColor=#909090;fontColor=#1A1A1A;" parent="mISCRe_RFVBFZnoGNRsq-66" vertex="1">
          <mxGeometry y="90" width="250" height="40" as="geometry" />
        </mxCell>
        <mxCell id="mISCRe_RFVBFZnoGNRsq-74" value="" style="shape=partialRectangle;overflow=hidden;connectable=0;fillColor=none;top=0;left=0;bottom=0;right=0;labelBackgroundColor=none;rounded=1;strokeColor=#909090;fontColor=#1A1A1A;" parent="mISCRe_RFVBFZnoGNRsq-73" vertex="1">
          <mxGeometry width="30" height="40" as="geometry">
            <mxRectangle width="30" height="40" as="alternateBounds" />
          </mxGeometry>
        </mxCell>
        <mxCell id="mISCRe_RFVBFZnoGNRsq-75" value="Direccion del movimiento u orientacioin" style="shape=partialRectangle;overflow=hidden;connectable=0;fillColor=none;top=0;left=0;bottom=0;right=0;align=left;spacingLeft=6;labelBackgroundColor=none;rounded=1;strokeColor=#909090;fontColor=#1A1A1A;" parent="mISCRe_RFVBFZnoGNRsq-73" vertex="1">
          <mxGeometry x="30" width="220" height="40" as="geometry">
            <mxRectangle width="220" height="40" as="alternateBounds" />
          </mxGeometry>
        </mxCell>
        <mxCell id="mISCRe_RFVBFZnoGNRsq-76" value="" style="shape=partialRectangle;collapsible=0;dropTarget=0;pointerEvents=0;fillColor=none;points=[[0,0.5],[1,0.5]];portConstraint=eastwest;top=0;left=0;right=0;bottom=0;labelBackgroundColor=none;rounded=1;strokeColor=#909090;fontColor=#1A1A1A;" parent="mISCRe_RFVBFZnoGNRsq-66" vertex="1">
          <mxGeometry y="130" width="250" height="30" as="geometry" />
        </mxCell>
        <mxCell id="mISCRe_RFVBFZnoGNRsq-77" value="" style="shape=partialRectangle;overflow=hidden;connectable=0;fillColor=none;top=0;left=0;bottom=0;right=0;labelBackgroundColor=none;rounded=1;strokeColor=#909090;fontColor=#1A1A1A;" parent="mISCRe_RFVBFZnoGNRsq-76" vertex="1">
          <mxGeometry width="30" height="30" as="geometry">
            <mxRectangle width="30" height="30" as="alternateBounds" />
          </mxGeometry>
        </mxCell>
        <mxCell id="mISCRe_RFVBFZnoGNRsq-78" value="Latitud " style="shape=partialRectangle;overflow=hidden;connectable=0;fillColor=none;top=0;left=0;bottom=0;right=0;align=left;spacingLeft=6;labelBackgroundColor=none;rounded=1;strokeColor=#909090;fontColor=#1A1A1A;" parent="mISCRe_RFVBFZnoGNRsq-76" vertex="1">
          <mxGeometry x="30" width="220" height="30" as="geometry">
            <mxRectangle width="220" height="30" as="alternateBounds" />
          </mxGeometry>
        </mxCell>
        <mxCell id="mISCRe_RFVBFZnoGNRsq-79" value="" style="shape=partialRectangle;collapsible=0;dropTarget=0;pointerEvents=0;fillColor=none;points=[[0,0.5],[1,0.5]];portConstraint=eastwest;top=0;left=0;right=0;bottom=0;labelBackgroundColor=none;rounded=1;strokeColor=#909090;fontColor=#1A1A1A;" parent="mISCRe_RFVBFZnoGNRsq-66" vertex="1">
          <mxGeometry y="160" width="250" height="30" as="geometry" />
        </mxCell>
        <mxCell id="mISCRe_RFVBFZnoGNRsq-80" value="" style="shape=partialRectangle;overflow=hidden;connectable=0;fillColor=none;top=0;left=0;bottom=0;right=0;labelBackgroundColor=none;rounded=1;strokeColor=#909090;fontColor=#1A1A1A;" parent="mISCRe_RFVBFZnoGNRsq-79" vertex="1">
          <mxGeometry width="30" height="30" as="geometry">
            <mxRectangle width="30" height="30" as="alternateBounds" />
          </mxGeometry>
        </mxCell>
        <mxCell id="mISCRe_RFVBFZnoGNRsq-81" value="Longitud ( coordenada)" style="shape=partialRectangle;overflow=hidden;connectable=0;fillColor=none;top=0;left=0;bottom=0;right=0;align=left;spacingLeft=6;labelBackgroundColor=none;rounded=1;strokeColor=#909090;fontColor=#1A1A1A;" parent="mISCRe_RFVBFZnoGNRsq-79" vertex="1">
          <mxGeometry x="30" width="220" height="30" as="geometry">
            <mxRectangle width="220" height="30" as="alternateBounds" />
          </mxGeometry>
        </mxCell>
        <mxCell id="mISCRe_RFVBFZnoGNRsq-82" value="" style="shape=partialRectangle;collapsible=0;dropTarget=0;pointerEvents=0;fillColor=none;points=[[0,0.5],[1,0.5]];portConstraint=eastwest;top=0;left=0;right=0;bottom=0;labelBackgroundColor=none;rounded=1;strokeColor=#909090;fontColor=#1A1A1A;" parent="mISCRe_RFVBFZnoGNRsq-66" vertex="1">
          <mxGeometry y="190" width="250" height="30" as="geometry" />
        </mxCell>
        <mxCell id="mISCRe_RFVBFZnoGNRsq-83" value="Fk" style="shape=partialRectangle;overflow=hidden;connectable=0;fillColor=none;top=0;left=0;bottom=0;right=0;labelBackgroundColor=none;rounded=1;strokeColor=#909090;fontColor=#1A1A1A;" parent="mISCRe_RFVBFZnoGNRsq-82" vertex="1">
          <mxGeometry width="30" height="30" as="geometry">
            <mxRectangle width="30" height="30" as="alternateBounds" />
          </mxGeometry>
        </mxCell>
        <mxCell id="mISCRe_RFVBFZnoGNRsq-84" value="vehiculo" style="shape=partialRectangle;overflow=hidden;connectable=0;fillColor=none;top=0;left=0;bottom=0;right=0;align=left;spacingLeft=6;labelBackgroundColor=none;rounded=1;strokeColor=#909090;fontColor=#1A1A1A;" parent="mISCRe_RFVBFZnoGNRsq-82" vertex="1">
          <mxGeometry x="30" width="220" height="30" as="geometry">
            <mxRectangle width="220" height="30" as="alternateBounds" />
          </mxGeometry>
        </mxCell>
        <mxCell id="mISCRe_RFVBFZnoGNRsq-85" value="" style="edgeStyle=entityRelationEdgeStyle;fontSize=12;html=1;endArrow=ERmandOne;startArrow=ERmandOne;rounded=1;exitX=1;exitY=0.5;exitDx=0;exitDy=0;labelBackgroundColor=none;fontColor=default;strokeColor=#182E3E;" parent="1" source="mISCRe_RFVBFZnoGNRsq-2" target="mISCRe_RFVBFZnoGNRsq-24" edge="1">
          <mxGeometry width="100" height="100" relative="1" as="geometry">
            <mxPoint x="1420" y="510" as="sourcePoint" />
            <mxPoint x="1460" y="370" as="targetPoint" />
            <Array as="points">
              <mxPoint x="1440" y="440" />
            </Array>
          </mxGeometry>
        </mxCell>
        <mxCell id="mISCRe_RFVBFZnoGNRsq-86" value="" style="edgeStyle=entityRelationEdgeStyle;fontSize=12;html=1;endArrow=ERmandOne;startArrow=ERmandOne;rounded=1;entryX=0;entryY=0.5;entryDx=0;entryDy=0;exitX=1;exitY=0.5;exitDx=0;exitDy=0;labelBackgroundColor=none;fontColor=default;strokeColor=#182E3E;" parent="1" target="mISCRe_RFVBFZnoGNRsq-21" edge="1">
          <mxGeometry width="100" height="100" relative="1" as="geometry">
            <mxPoint x="1020" y="365" as="sourcePoint" />
            <mxPoint x="1070" y="490" as="targetPoint" />
          </mxGeometry>
        </mxCell>
        <mxCell id="mISCRe_RFVBFZnoGNRsq-87" value="Usuario" style="shape=table;startSize=30;container=1;collapsible=1;childLayout=tableLayout;fixedRows=1;rowLines=0;fontStyle=1;align=center;resizeLast=1;labelBackgroundColor=none;rounded=1;shadow=0;fillColor=#F5AB50;strokeColor=#909090;fontColor=#1A1A1A;" parent="1" vertex="1">
          <mxGeometry x="710" y="900" width="250" height="250" as="geometry">
            <mxRectangle x="600" y="900" width="80" height="30" as="alternateBounds" />
          </mxGeometry>
        </mxCell>
        <mxCell id="mISCRe_RFVBFZnoGNRsq-88" value="" style="shape=partialRectangle;collapsible=0;dropTarget=0;pointerEvents=0;fillColor=none;points=[[0,0.5],[1,0.5]];portConstraint=eastwest;top=0;left=0;right=0;bottom=1;labelBackgroundColor=none;rounded=1;strokeColor=#909090;fontColor=#1A1A1A;" parent="mISCRe_RFVBFZnoGNRsq-87" vertex="1">
          <mxGeometry y="30" width="250" height="30" as="geometry" />
        </mxCell>
        <mxCell id="mISCRe_RFVBFZnoGNRsq-89" value="PK" style="shape=partialRectangle;overflow=hidden;connectable=0;fillColor=none;top=0;left=0;bottom=0;right=0;fontStyle=1;labelBackgroundColor=none;rounded=1;strokeColor=#909090;fontColor=#1A1A1A;" parent="mISCRe_RFVBFZnoGNRsq-88" vertex="1">
          <mxGeometry width="30" height="30" as="geometry">
            <mxRectangle width="30" height="30" as="alternateBounds" />
          </mxGeometry>
        </mxCell>
        <mxCell id="mISCRe_RFVBFZnoGNRsq-90" value="id_usuario" style="shape=partialRectangle;overflow=hidden;connectable=0;fillColor=none;top=0;left=0;bottom=0;right=0;align=left;spacingLeft=6;fontStyle=5;labelBackgroundColor=none;rounded=1;strokeColor=#909090;fontColor=#1A1A1A;" parent="mISCRe_RFVBFZnoGNRsq-88" vertex="1">
          <mxGeometry x="30" width="220" height="30" as="geometry">
            <mxRectangle width="220" height="30" as="alternateBounds" />
          </mxGeometry>
        </mxCell>
        <mxCell id="mISCRe_RFVBFZnoGNRsq-91" value="" style="shape=partialRectangle;collapsible=0;dropTarget=0;pointerEvents=0;fillColor=none;points=[[0,0.5],[1,0.5]];portConstraint=eastwest;top=0;left=0;right=0;bottom=0;labelBackgroundColor=none;rounded=1;strokeColor=#909090;fontColor=#1A1A1A;" parent="mISCRe_RFVBFZnoGNRsq-87" vertex="1">
          <mxGeometry y="60" width="250" height="30" as="geometry" />
        </mxCell>
        <mxCell id="mISCRe_RFVBFZnoGNRsq-92" value="FK" style="shape=partialRectangle;overflow=hidden;connectable=0;fillColor=none;top=0;left=0;bottom=0;right=0;labelBackgroundColor=none;rounded=1;strokeColor=#909090;fontColor=#1A1A1A;" parent="mISCRe_RFVBFZnoGNRsq-91" vertex="1">
          <mxGeometry width="30" height="30" as="geometry">
            <mxRectangle width="30" height="30" as="alternateBounds" />
          </mxGeometry>
        </mxCell>
        <mxCell id="mISCRe_RFVBFZnoGNRsq-93" value="id_ubicacion_usuario" style="shape=partialRectangle;overflow=hidden;connectable=0;fillColor=none;top=0;left=0;bottom=0;right=0;align=left;spacingLeft=6;labelBackgroundColor=none;rounded=1;strokeColor=#909090;fontColor=#1A1A1A;" parent="mISCRe_RFVBFZnoGNRsq-91" vertex="1">
          <mxGeometry x="30" width="220" height="30" as="geometry">
            <mxRectangle width="220" height="30" as="alternateBounds" />
          </mxGeometry>
        </mxCell>
        <mxCell id="mISCRe_RFVBFZnoGNRsq-94" value="" style="shape=partialRectangle;collapsible=0;dropTarget=0;pointerEvents=0;fillColor=none;points=[[0,0.5],[1,0.5]];portConstraint=eastwest;top=0;left=0;right=0;bottom=0;labelBackgroundColor=none;rounded=1;strokeColor=#909090;fontColor=#1A1A1A;" parent="mISCRe_RFVBFZnoGNRsq-87" vertex="1">
          <mxGeometry y="90" width="250" height="40" as="geometry" />
        </mxCell>
        <mxCell id="mISCRe_RFVBFZnoGNRsq-95" value="" style="shape=partialRectangle;overflow=hidden;connectable=0;fillColor=none;top=0;left=0;bottom=0;right=0;labelBackgroundColor=none;rounded=1;strokeColor=#909090;fontColor=#1A1A1A;" parent="mISCRe_RFVBFZnoGNRsq-94" vertex="1">
          <mxGeometry width="30" height="40" as="geometry">
            <mxRectangle width="30" height="40" as="alternateBounds" />
          </mxGeometry>
        </mxCell>
        <mxCell id="mISCRe_RFVBFZnoGNRsq-96" value="nombre" style="shape=partialRectangle;overflow=hidden;connectable=0;fillColor=none;top=0;left=0;bottom=0;right=0;align=left;spacingLeft=6;labelBackgroundColor=none;rounded=1;strokeColor=#909090;fontColor=#1A1A1A;" parent="mISCRe_RFVBFZnoGNRsq-94" vertex="1">
          <mxGeometry x="30" width="220" height="40" as="geometry">
            <mxRectangle width="220" height="40" as="alternateBounds" />
          </mxGeometry>
        </mxCell>
        <mxCell id="mISCRe_RFVBFZnoGNRsq-97" value="" style="shape=partialRectangle;collapsible=0;dropTarget=0;pointerEvents=0;fillColor=none;points=[[0,0.5],[1,0.5]];portConstraint=eastwest;top=0;left=0;right=0;bottom=0;labelBackgroundColor=none;rounded=1;strokeColor=#909090;fontColor=#1A1A1A;" parent="mISCRe_RFVBFZnoGNRsq-87" vertex="1">
          <mxGeometry y="130" width="250" height="30" as="geometry" />
        </mxCell>
        <mxCell id="mISCRe_RFVBFZnoGNRsq-98" value="" style="shape=partialRectangle;overflow=hidden;connectable=0;fillColor=none;top=0;left=0;bottom=0;right=0;labelBackgroundColor=none;rounded=1;strokeColor=#909090;fontColor=#1A1A1A;" parent="mISCRe_RFVBFZnoGNRsq-97" vertex="1">
          <mxGeometry width="30" height="30" as="geometry">
            <mxRectangle width="30" height="30" as="alternateBounds" />
          </mxGeometry>
        </mxCell>
        <mxCell id="mISCRe_RFVBFZnoGNRsq-99" value="Nacionalidad" style="shape=partialRectangle;overflow=hidden;connectable=0;fillColor=none;top=0;left=0;bottom=0;right=0;align=left;spacingLeft=6;labelBackgroundColor=none;rounded=1;strokeColor=#909090;fontColor=#1A1A1A;" parent="mISCRe_RFVBFZnoGNRsq-97" vertex="1">
          <mxGeometry x="30" width="220" height="30" as="geometry">
            <mxRectangle width="220" height="30" as="alternateBounds" />
          </mxGeometry>
        </mxCell>
        <mxCell id="mISCRe_RFVBFZnoGNRsq-100" value="" style="shape=partialRectangle;collapsible=0;dropTarget=0;pointerEvents=0;fillColor=none;points=[[0,0.5],[1,0.5]];portConstraint=eastwest;top=0;left=0;right=0;bottom=0;labelBackgroundColor=none;rounded=1;strokeColor=#909090;fontColor=#1A1A1A;" parent="mISCRe_RFVBFZnoGNRsq-87" vertex="1">
          <mxGeometry y="160" width="250" height="30" as="geometry" />
        </mxCell>
        <mxCell id="mISCRe_RFVBFZnoGNRsq-101" value="" style="shape=partialRectangle;overflow=hidden;connectable=0;fillColor=none;top=0;left=0;bottom=0;right=0;labelBackgroundColor=none;rounded=1;strokeColor=#909090;fontColor=#1A1A1A;" parent="mISCRe_RFVBFZnoGNRsq-100" vertex="1">
          <mxGeometry width="30" height="30" as="geometry">
            <mxRectangle width="30" height="30" as="alternateBounds" />
          </mxGeometry>
        </mxCell>
        <mxCell id="mISCRe_RFVBFZnoGNRsq-102" value="Telefono" style="shape=partialRectangle;overflow=hidden;connectable=0;fillColor=none;top=0;left=0;bottom=0;right=0;align=left;spacingLeft=6;labelBackgroundColor=none;rounded=1;strokeColor=#909090;fontColor=#1A1A1A;" parent="mISCRe_RFVBFZnoGNRsq-100" vertex="1">
          <mxGeometry x="30" width="220" height="30" as="geometry">
            <mxRectangle width="220" height="30" as="alternateBounds" />
          </mxGeometry>
        </mxCell>
        <mxCell id="mISCRe_RFVBFZnoGNRsq-103" value="" style="shape=partialRectangle;collapsible=0;dropTarget=0;pointerEvents=0;fillColor=none;points=[[0,0.5],[1,0.5]];portConstraint=eastwest;top=0;left=0;right=0;bottom=0;labelBackgroundColor=none;rounded=1;strokeColor=#909090;fontColor=#1A1A1A;" parent="mISCRe_RFVBFZnoGNRsq-87" vertex="1">
          <mxGeometry y="190" width="250" height="30" as="geometry" />
        </mxCell>
        <mxCell id="mISCRe_RFVBFZnoGNRsq-104" value="" style="shape=partialRectangle;overflow=hidden;connectable=0;fillColor=none;top=0;left=0;bottom=0;right=0;labelBackgroundColor=none;rounded=1;strokeColor=#909090;fontColor=#1A1A1A;" parent="mISCRe_RFVBFZnoGNRsq-103" vertex="1">
          <mxGeometry width="30" height="30" as="geometry">
            <mxRectangle width="30" height="30" as="alternateBounds" />
          </mxGeometry>
        </mxCell>
        <mxCell id="mISCRe_RFVBFZnoGNRsq-105" value="Fecha_cumpleaños" style="shape=partialRectangle;overflow=hidden;connectable=0;fillColor=none;top=0;left=0;bottom=0;right=0;align=left;spacingLeft=6;labelBackgroundColor=none;rounded=1;strokeColor=#909090;fontColor=#1A1A1A;" parent="mISCRe_RFVBFZnoGNRsq-103" vertex="1">
          <mxGeometry x="30" width="220" height="30" as="geometry">
            <mxRectangle width="220" height="30" as="alternateBounds" />
          </mxGeometry>
        </mxCell>
        <mxCell id="mISCRe_RFVBFZnoGNRsq-106" value="" style="shape=partialRectangle;collapsible=0;dropTarget=0;pointerEvents=0;fillColor=none;points=[[0,0.5],[1,0.5]];portConstraint=eastwest;top=0;left=0;right=0;bottom=0;labelBackgroundColor=none;rounded=1;strokeColor=#909090;fontColor=#1A1A1A;" parent="mISCRe_RFVBFZnoGNRsq-87" vertex="1">
          <mxGeometry y="220" width="250" height="30" as="geometry" />
        </mxCell>
        <mxCell id="mISCRe_RFVBFZnoGNRsq-107" value="" style="shape=partialRectangle;overflow=hidden;connectable=0;fillColor=none;top=0;left=0;bottom=0;right=0;labelBackgroundColor=none;rounded=1;strokeColor=#909090;fontColor=#1A1A1A;" parent="mISCRe_RFVBFZnoGNRsq-106" vertex="1">
          <mxGeometry width="30" height="30" as="geometry">
            <mxRectangle width="30" height="30" as="alternateBounds" />
          </mxGeometry>
        </mxCell>
        <mxCell id="mISCRe_RFVBFZnoGNRsq-108" value="correo_electronico" style="shape=partialRectangle;overflow=hidden;connectable=0;fillColor=none;top=0;left=0;bottom=0;right=0;align=left;spacingLeft=6;labelBackgroundColor=none;rounded=1;strokeColor=#909090;fontColor=#1A1A1A;" parent="mISCRe_RFVBFZnoGNRsq-106" vertex="1">
          <mxGeometry x="30" width="220" height="30" as="geometry">
            <mxRectangle width="220" height="30" as="alternateBounds" />
          </mxGeometry>
        </mxCell>
        <mxCell id="mISCRe_RFVBFZnoGNRsq-109" value="" style="edgeStyle=entityRelationEdgeStyle;fontSize=12;html=1;endArrow=ERmandOne;startArrow=ERmandOne;rounded=1;exitX=1;exitY=0.5;exitDx=0;exitDy=0;labelBackgroundColor=none;fontColor=default;strokeColor=#182E3E;" parent="1" source="mISCRe_RFVBFZnoGNRsq-70" target="mISCRe_RFVBFZnoGNRsq-43" edge="1">
          <mxGeometry width="100" height="100" relative="1" as="geometry">
            <mxPoint x="920" y="610" as="sourcePoint" />
            <mxPoint x="1020" y="510" as="targetPoint" />
          </mxGeometry>
        </mxCell>
        <mxCell id="mISCRe_RFVBFZnoGNRsq-110" value="Ciudad" style="shape=table;startSize=25;container=1;collapsible=1;childLayout=tableLayout;fixedRows=1;rowLines=0;fontStyle=1;align=center;resizeLast=1;labelBackgroundColor=none;rounded=1;fillColor=#F5AB50;strokeColor=#909090;fontColor=#1A1A1A;" parent="1" vertex="1">
          <mxGeometry x="400" y="180" width="250" height="285" as="geometry" />
        </mxCell>
        <mxCell id="mISCRe_RFVBFZnoGNRsq-111" value="" style="shape=partialRectangle;collapsible=0;dropTarget=0;pointerEvents=0;fillColor=none;points=[[0,0.5],[1,0.5]];portConstraint=eastwest;top=0;left=0;right=0;bottom=1;labelBackgroundColor=none;rounded=1;strokeColor=#909090;fontColor=#1A1A1A;" parent="mISCRe_RFVBFZnoGNRsq-110" vertex="1">
          <mxGeometry y="25" width="250" height="30" as="geometry" />
        </mxCell>
        <mxCell id="mISCRe_RFVBFZnoGNRsq-112" value="PK" style="shape=partialRectangle;overflow=hidden;connectable=0;fillColor=none;top=0;left=0;bottom=0;right=0;fontStyle=1;labelBackgroundColor=none;rounded=1;strokeColor=#909090;fontColor=#1A1A1A;" parent="mISCRe_RFVBFZnoGNRsq-111" vertex="1">
          <mxGeometry width="30" height="30" as="geometry">
            <mxRectangle width="30" height="30" as="alternateBounds" />
          </mxGeometry>
        </mxCell>
        <mxCell id="mISCRe_RFVBFZnoGNRsq-113" value="id_ciudad" style="shape=partialRectangle;overflow=hidden;connectable=0;fillColor=none;top=0;left=0;bottom=0;right=0;align=left;spacingLeft=6;fontStyle=5;labelBackgroundColor=none;rounded=1;strokeColor=#909090;fontColor=#1A1A1A;" parent="mISCRe_RFVBFZnoGNRsq-111" vertex="1">
          <mxGeometry x="30" width="220" height="30" as="geometry">
            <mxRectangle width="220" height="30" as="alternateBounds" />
          </mxGeometry>
        </mxCell>
        <mxCell id="mISCRe_RFVBFZnoGNRsq-114" value="" style="shape=partialRectangle;collapsible=0;dropTarget=0;pointerEvents=0;fillColor=none;points=[[0,0.5],[1,0.5]];portConstraint=eastwest;top=0;left=0;right=0;bottom=0;labelBackgroundColor=none;rounded=1;strokeColor=#909090;fontColor=#1A1A1A;" parent="mISCRe_RFVBFZnoGNRsq-110" vertex="1">
          <mxGeometry y="55" width="250" height="30" as="geometry" />
        </mxCell>
        <mxCell id="mISCRe_RFVBFZnoGNRsq-115" value="FK" style="shape=partialRectangle;overflow=hidden;connectable=0;fillColor=none;top=0;left=0;bottom=0;right=0;labelBackgroundColor=none;rounded=1;strokeColor=#909090;fontColor=#1A1A1A;" parent="mISCRe_RFVBFZnoGNRsq-114" vertex="1">
          <mxGeometry width="30" height="30" as="geometry">
            <mxRectangle width="30" height="30" as="alternateBounds" />
          </mxGeometry>
        </mxCell>
        <mxCell id="mISCRe_RFVBFZnoGNRsq-116" value="id_pais" style="shape=partialRectangle;overflow=hidden;connectable=0;fillColor=none;top=0;left=0;bottom=0;right=0;align=left;spacingLeft=6;labelBackgroundColor=none;rounded=1;strokeColor=#909090;fontColor=#1A1A1A;" parent="mISCRe_RFVBFZnoGNRsq-114" vertex="1">
          <mxGeometry x="30" width="220" height="30" as="geometry">
            <mxRectangle width="220" height="30" as="alternateBounds" />
          </mxGeometry>
        </mxCell>
        <mxCell id="mISCRe_RFVBFZnoGNRsq-117" value="" style="shape=partialRectangle;collapsible=0;dropTarget=0;pointerEvents=0;fillColor=none;points=[[0,0.5],[1,0.5]];portConstraint=eastwest;top=0;left=0;right=0;bottom=0;labelBackgroundColor=none;rounded=1;strokeColor=#909090;fontColor=#1A1A1A;" parent="mISCRe_RFVBFZnoGNRsq-110" vertex="1">
          <mxGeometry y="85" width="250" height="40" as="geometry" />
        </mxCell>
        <mxCell id="mISCRe_RFVBFZnoGNRsq-118" value="" style="shape=partialRectangle;overflow=hidden;connectable=0;fillColor=none;top=0;left=0;bottom=0;right=0;labelBackgroundColor=none;rounded=1;strokeColor=#909090;fontColor=#1A1A1A;" parent="mISCRe_RFVBFZnoGNRsq-117" vertex="1">
          <mxGeometry width="30" height="40" as="geometry">
            <mxRectangle width="30" height="40" as="alternateBounds" />
          </mxGeometry>
        </mxCell>
        <mxCell id="mISCRe_RFVBFZnoGNRsq-119" value="Nombre" style="shape=partialRectangle;overflow=hidden;connectable=0;fillColor=none;top=0;left=0;bottom=0;right=0;align=left;spacingLeft=6;labelBackgroundColor=none;rounded=1;strokeColor=#909090;fontColor=#1A1A1A;" parent="mISCRe_RFVBFZnoGNRsq-117" vertex="1">
          <mxGeometry x="30" width="220" height="40" as="geometry">
            <mxRectangle width="220" height="40" as="alternateBounds" />
          </mxGeometry>
        </mxCell>
        <mxCell id="mISCRe_RFVBFZnoGNRsq-120" value="" style="shape=partialRectangle;collapsible=0;dropTarget=0;pointerEvents=0;fillColor=none;points=[[0,0.5],[1,0.5]];portConstraint=eastwest;top=0;left=0;right=0;bottom=0;labelBackgroundColor=none;rounded=1;strokeColor=#909090;fontColor=#1A1A1A;" parent="mISCRe_RFVBFZnoGNRsq-110" vertex="1">
          <mxGeometry y="125" width="250" height="35" as="geometry" />
        </mxCell>
        <mxCell id="mISCRe_RFVBFZnoGNRsq-121" value="" style="shape=partialRectangle;overflow=hidden;connectable=0;fillColor=none;top=0;left=0;bottom=0;right=0;labelBackgroundColor=none;rounded=1;strokeColor=#909090;fontColor=#1A1A1A;" parent="mISCRe_RFVBFZnoGNRsq-120" vertex="1">
          <mxGeometry width="30" height="35" as="geometry">
            <mxRectangle width="30" height="35" as="alternateBounds" />
          </mxGeometry>
        </mxCell>
        <mxCell id="mISCRe_RFVBFZnoGNRsq-122" value="Codigo postal" style="shape=partialRectangle;overflow=hidden;connectable=0;fillColor=none;top=0;left=0;bottom=0;right=0;align=left;spacingLeft=6;labelBackgroundColor=none;rounded=1;strokeColor=#909090;fontColor=#1A1A1A;" parent="mISCRe_RFVBFZnoGNRsq-120" vertex="1">
          <mxGeometry x="30" width="220" height="35" as="geometry">
            <mxRectangle width="220" height="35" as="alternateBounds" />
          </mxGeometry>
        </mxCell>
        <mxCell id="mISCRe_RFVBFZnoGNRsq-123" value="" style="shape=partialRectangle;collapsible=0;dropTarget=0;pointerEvents=0;fillColor=none;points=[[0,0.5],[1,0.5]];portConstraint=eastwest;top=0;left=0;right=0;bottom=0;labelBackgroundColor=none;rounded=1;strokeColor=#909090;fontColor=#1A1A1A;" parent="mISCRe_RFVBFZnoGNRsq-110" vertex="1">
          <mxGeometry y="160" width="250" height="30" as="geometry" />
        </mxCell>
        <mxCell id="mISCRe_RFVBFZnoGNRsq-124" value="" style="shape=partialRectangle;overflow=hidden;connectable=0;fillColor=none;top=0;left=0;bottom=0;right=0;labelBackgroundColor=none;rounded=1;strokeColor=#909090;fontColor=#1A1A1A;" parent="mISCRe_RFVBFZnoGNRsq-123" vertex="1">
          <mxGeometry width="30" height="30" as="geometry">
            <mxRectangle width="30" height="30" as="alternateBounds" />
          </mxGeometry>
        </mxCell>
        <mxCell id="mISCRe_RFVBFZnoGNRsq-125" value="Poblacion" style="shape=partialRectangle;overflow=hidden;connectable=0;fillColor=none;top=0;left=0;bottom=0;right=0;align=left;spacingLeft=6;labelBackgroundColor=none;rounded=1;strokeColor=#909090;fontColor=#1A1A1A;" parent="mISCRe_RFVBFZnoGNRsq-123" vertex="1">
          <mxGeometry x="30" width="220" height="30" as="geometry">
            <mxRectangle width="220" height="30" as="alternateBounds" />
          </mxGeometry>
        </mxCell>
        <mxCell id="mISCRe_RFVBFZnoGNRsq-126" value="" style="shape=partialRectangle;collapsible=0;dropTarget=0;pointerEvents=0;fillColor=none;points=[[0,0.5],[1,0.5]];portConstraint=eastwest;top=0;left=0;right=0;bottom=0;labelBackgroundColor=none;rounded=1;strokeColor=#909090;fontColor=#1A1A1A;" parent="mISCRe_RFVBFZnoGNRsq-110" vertex="1">
          <mxGeometry y="190" width="250" height="30" as="geometry" />
        </mxCell>
        <mxCell id="mISCRe_RFVBFZnoGNRsq-127" value="" style="shape=partialRectangle;overflow=hidden;connectable=0;fillColor=none;top=0;left=0;bottom=0;right=0;labelBackgroundColor=none;rounded=1;strokeColor=#909090;fontColor=#1A1A1A;" parent="mISCRe_RFVBFZnoGNRsq-126" vertex="1">
          <mxGeometry width="30" height="30" as="geometry">
            <mxRectangle width="30" height="30" as="alternateBounds" />
          </mxGeometry>
        </mxCell>
        <mxCell id="mISCRe_RFVBFZnoGNRsq-128" value="Areas" style="shape=partialRectangle;overflow=hidden;connectable=0;fillColor=none;top=0;left=0;bottom=0;right=0;align=left;spacingLeft=6;labelBackgroundColor=none;rounded=1;strokeColor=#909090;fontColor=#1A1A1A;" parent="mISCRe_RFVBFZnoGNRsq-126" vertex="1">
          <mxGeometry x="30" width="220" height="30" as="geometry">
            <mxRectangle width="220" height="30" as="alternateBounds" />
          </mxGeometry>
        </mxCell>
        <mxCell id="mISCRe_RFVBFZnoGNRsq-129" value="" style="shape=partialRectangle;collapsible=0;dropTarget=0;pointerEvents=0;fillColor=none;points=[[0,0.5],[1,0.5]];portConstraint=eastwest;top=0;left=0;right=0;bottom=0;labelBackgroundColor=none;rounded=1;strokeColor=#909090;fontColor=#1A1A1A;" parent="mISCRe_RFVBFZnoGNRsq-110" vertex="1">
          <mxGeometry y="220" width="250" height="30" as="geometry" />
        </mxCell>
        <mxCell id="mISCRe_RFVBFZnoGNRsq-130" value="" style="shape=partialRectangle;overflow=hidden;connectable=0;fillColor=none;top=0;left=0;bottom=0;right=0;labelBackgroundColor=none;rounded=1;strokeColor=#909090;fontColor=#1A1A1A;" parent="mISCRe_RFVBFZnoGNRsq-129" vertex="1">
          <mxGeometry width="30" height="30" as="geometry">
            <mxRectangle width="30" height="30" as="alternateBounds" />
          </mxGeometry>
        </mxCell>
        <mxCell id="mISCRe_RFVBFZnoGNRsq-131" value="Latitud y longitud" style="shape=partialRectangle;overflow=hidden;connectable=0;fillColor=none;top=0;left=0;bottom=0;right=0;align=left;spacingLeft=6;labelBackgroundColor=none;rounded=1;strokeColor=#909090;fontColor=#1A1A1A;" parent="mISCRe_RFVBFZnoGNRsq-129" vertex="1">
          <mxGeometry x="30" width="220" height="30" as="geometry">
            <mxRectangle width="220" height="30" as="alternateBounds" />
          </mxGeometry>
        </mxCell>
        <mxCell id="NVIgVe-odFlYylcZKT-Y-67" value="" style="shape=partialRectangle;collapsible=0;dropTarget=0;pointerEvents=0;fillColor=none;points=[[0,0.5],[1,0.5]];portConstraint=eastwest;top=0;left=0;right=0;bottom=0;labelBackgroundColor=none;rounded=1;strokeColor=#909090;fontColor=#1A1A1A;" parent="mISCRe_RFVBFZnoGNRsq-110" vertex="1">
          <mxGeometry y="250" width="250" height="30" as="geometry" />
        </mxCell>
        <mxCell id="NVIgVe-odFlYylcZKT-Y-68" value="FK" style="shape=partialRectangle;overflow=hidden;connectable=0;fillColor=none;top=0;left=0;bottom=0;right=0;labelBackgroundColor=none;rounded=1;strokeColor=#909090;fontColor=#1A1A1A;" parent="NVIgVe-odFlYylcZKT-Y-67" vertex="1">
          <mxGeometry width="30" height="30" as="geometry">
            <mxRectangle width="30" height="30" as="alternateBounds" />
          </mxGeometry>
        </mxCell>
        <mxCell id="NVIgVe-odFlYylcZKT-Y-69" value="id_region" style="shape=partialRectangle;overflow=hidden;connectable=0;fillColor=none;top=0;left=0;bottom=0;right=0;align=left;spacingLeft=6;labelBackgroundColor=none;rounded=1;strokeColor=#909090;fontColor=#1A1A1A;" parent="NVIgVe-odFlYylcZKT-Y-67" vertex="1">
          <mxGeometry x="30" width="220" height="30" as="geometry">
            <mxRectangle width="220" height="30" as="alternateBounds" />
          </mxGeometry>
        </mxCell>
        <mxCell id="mISCRe_RFVBFZnoGNRsq-132" value="Region" style="shape=table;startSize=25;container=1;collapsible=1;childLayout=tableLayout;fixedRows=1;rowLines=0;fontStyle=1;align=center;resizeLast=1;labelBackgroundColor=none;rounded=1;fillColor=#F5AB50;strokeColor=#909090;fontColor=#1A1A1A;" parent="1" vertex="1">
          <mxGeometry x="40" y="40" width="250" height="255" as="geometry" />
        </mxCell>
        <mxCell id="mISCRe_RFVBFZnoGNRsq-133" value="" style="shape=partialRectangle;collapsible=0;dropTarget=0;pointerEvents=0;fillColor=none;points=[[0,0.5],[1,0.5]];portConstraint=eastwest;top=0;left=0;right=0;bottom=1;labelBackgroundColor=none;rounded=1;strokeColor=#909090;fontColor=#1A1A1A;" parent="mISCRe_RFVBFZnoGNRsq-132" vertex="1">
          <mxGeometry y="25" width="250" height="30" as="geometry" />
        </mxCell>
        <mxCell id="mISCRe_RFVBFZnoGNRsq-134" value="PK" style="shape=partialRectangle;overflow=hidden;connectable=0;fillColor=none;top=0;left=0;bottom=0;right=0;fontStyle=1;labelBackgroundColor=none;rounded=1;strokeColor=#909090;fontColor=#1A1A1A;" parent="mISCRe_RFVBFZnoGNRsq-133" vertex="1">
          <mxGeometry width="30" height="30" as="geometry">
            <mxRectangle width="30" height="30" as="alternateBounds" />
          </mxGeometry>
        </mxCell>
        <mxCell id="mISCRe_RFVBFZnoGNRsq-135" value="id_region" style="shape=partialRectangle;overflow=hidden;connectable=0;fillColor=none;top=0;left=0;bottom=0;right=0;align=left;spacingLeft=6;fontStyle=5;labelBackgroundColor=none;rounded=1;strokeColor=#909090;fontColor=#1A1A1A;" parent="mISCRe_RFVBFZnoGNRsq-133" vertex="1">
          <mxGeometry x="30" width="220" height="30" as="geometry">
            <mxRectangle width="220" height="30" as="alternateBounds" />
          </mxGeometry>
        </mxCell>
        <mxCell id="mISCRe_RFVBFZnoGNRsq-136" value="" style="shape=partialRectangle;collapsible=0;dropTarget=0;pointerEvents=0;fillColor=none;points=[[0,0.5],[1,0.5]];portConstraint=eastwest;top=0;left=0;right=0;bottom=0;labelBackgroundColor=none;rounded=1;strokeColor=#909090;fontColor=#1A1A1A;" parent="mISCRe_RFVBFZnoGNRsq-132" vertex="1">
          <mxGeometry y="55" width="250" height="35" as="geometry" />
        </mxCell>
        <mxCell id="mISCRe_RFVBFZnoGNRsq-137" value="FK" style="shape=partialRectangle;overflow=hidden;connectable=0;fillColor=none;top=0;left=0;bottom=0;right=0;labelBackgroundColor=none;rounded=1;strokeColor=#909090;fontColor=#1A1A1A;" parent="mISCRe_RFVBFZnoGNRsq-136" vertex="1">
          <mxGeometry width="30" height="35" as="geometry">
            <mxRectangle width="30" height="35" as="alternateBounds" />
          </mxGeometry>
        </mxCell>
        <mxCell id="mISCRe_RFVBFZnoGNRsq-138" value="id_pais" style="shape=partialRectangle;overflow=hidden;connectable=0;fillColor=none;top=0;left=0;bottom=0;right=0;align=left;spacingLeft=6;labelBackgroundColor=none;rounded=1;strokeColor=#909090;fontColor=#1A1A1A;" parent="mISCRe_RFVBFZnoGNRsq-136" vertex="1">
          <mxGeometry x="30" width="220" height="35" as="geometry">
            <mxRectangle width="220" height="35" as="alternateBounds" />
          </mxGeometry>
        </mxCell>
        <mxCell id="mISCRe_RFVBFZnoGNRsq-139" value="" style="shape=partialRectangle;collapsible=0;dropTarget=0;pointerEvents=0;fillColor=none;points=[[0,0.5],[1,0.5]];portConstraint=eastwest;top=0;left=0;right=0;bottom=0;labelBackgroundColor=none;rounded=1;strokeColor=#909090;fontColor=#1A1A1A;" parent="mISCRe_RFVBFZnoGNRsq-132" vertex="1">
          <mxGeometry y="90" width="250" height="40" as="geometry" />
        </mxCell>
        <mxCell id="mISCRe_RFVBFZnoGNRsq-140" value="" style="shape=partialRectangle;overflow=hidden;connectable=0;fillColor=none;top=0;left=0;bottom=0;right=0;labelBackgroundColor=none;rounded=1;strokeColor=#909090;fontColor=#1A1A1A;" parent="mISCRe_RFVBFZnoGNRsq-139" vertex="1">
          <mxGeometry width="30" height="40" as="geometry">
            <mxRectangle width="30" height="40" as="alternateBounds" />
          </mxGeometry>
        </mxCell>
        <mxCell id="mISCRe_RFVBFZnoGNRsq-141" value="Nombre" style="shape=partialRectangle;overflow=hidden;connectable=0;fillColor=none;top=0;left=0;bottom=0;right=0;align=left;spacingLeft=6;labelBackgroundColor=none;rounded=1;strokeColor=#909090;fontColor=#1A1A1A;" parent="mISCRe_RFVBFZnoGNRsq-139" vertex="1">
          <mxGeometry x="30" width="220" height="40" as="geometry">
            <mxRectangle width="220" height="40" as="alternateBounds" />
          </mxGeometry>
        </mxCell>
        <mxCell id="mISCRe_RFVBFZnoGNRsq-142" value="" style="shape=partialRectangle;collapsible=0;dropTarget=0;pointerEvents=0;fillColor=none;points=[[0,0.5],[1,0.5]];portConstraint=eastwest;top=0;left=0;right=0;bottom=0;labelBackgroundColor=none;rounded=1;strokeColor=#909090;fontColor=#1A1A1A;" parent="mISCRe_RFVBFZnoGNRsq-132" vertex="1">
          <mxGeometry y="130" width="250" height="30" as="geometry" />
        </mxCell>
        <mxCell id="mISCRe_RFVBFZnoGNRsq-143" value="" style="shape=partialRectangle;overflow=hidden;connectable=0;fillColor=none;top=0;left=0;bottom=0;right=0;labelBackgroundColor=none;rounded=1;strokeColor=#909090;fontColor=#1A1A1A;" parent="mISCRe_RFVBFZnoGNRsq-142" vertex="1">
          <mxGeometry width="30" height="30" as="geometry">
            <mxRectangle width="30" height="30" as="alternateBounds" />
          </mxGeometry>
        </mxCell>
        <mxCell id="mISCRe_RFVBFZnoGNRsq-144" value="Area" style="shape=partialRectangle;overflow=hidden;connectable=0;fillColor=none;top=0;left=0;bottom=0;right=0;align=left;spacingLeft=6;labelBackgroundColor=none;rounded=1;strokeColor=#909090;fontColor=#1A1A1A;" parent="mISCRe_RFVBFZnoGNRsq-142" vertex="1">
          <mxGeometry x="30" width="220" height="30" as="geometry">
            <mxRectangle width="220" height="30" as="alternateBounds" />
          </mxGeometry>
        </mxCell>
        <mxCell id="mISCRe_RFVBFZnoGNRsq-145" value="" style="shape=partialRectangle;collapsible=0;dropTarget=0;pointerEvents=0;fillColor=none;points=[[0,0.5],[1,0.5]];portConstraint=eastwest;top=0;left=0;right=0;bottom=0;labelBackgroundColor=none;rounded=1;strokeColor=#909090;fontColor=#1A1A1A;" parent="mISCRe_RFVBFZnoGNRsq-132" vertex="1">
          <mxGeometry y="160" width="250" height="30" as="geometry" />
        </mxCell>
        <mxCell id="mISCRe_RFVBFZnoGNRsq-146" value="" style="shape=partialRectangle;overflow=hidden;connectable=0;fillColor=none;top=0;left=0;bottom=0;right=0;labelBackgroundColor=none;rounded=1;strokeColor=#909090;fontColor=#1A1A1A;" parent="mISCRe_RFVBFZnoGNRsq-145" vertex="1">
          <mxGeometry width="30" height="30" as="geometry">
            <mxRectangle width="30" height="30" as="alternateBounds" />
          </mxGeometry>
        </mxCell>
        <mxCell id="mISCRe_RFVBFZnoGNRsq-147" value="Latitud longitud" style="shape=partialRectangle;overflow=hidden;connectable=0;fillColor=none;top=0;left=0;bottom=0;right=0;align=left;spacingLeft=6;labelBackgroundColor=none;rounded=1;strokeColor=#909090;fontColor=#1A1A1A;" parent="mISCRe_RFVBFZnoGNRsq-145" vertex="1">
          <mxGeometry x="30" width="220" height="30" as="geometry">
            <mxRectangle width="220" height="30" as="alternateBounds" />
          </mxGeometry>
        </mxCell>
        <mxCell id="mISCRe_RFVBFZnoGNRsq-148" value="" style="shape=partialRectangle;collapsible=0;dropTarget=0;pointerEvents=0;fillColor=none;points=[[0,0.5],[1,0.5]];portConstraint=eastwest;top=0;left=0;right=0;bottom=0;labelBackgroundColor=none;rounded=1;strokeColor=#909090;fontColor=#1A1A1A;" parent="mISCRe_RFVBFZnoGNRsq-132" vertex="1">
          <mxGeometry y="190" width="250" height="30" as="geometry" />
        </mxCell>
        <mxCell id="mISCRe_RFVBFZnoGNRsq-149" value="" style="shape=partialRectangle;overflow=hidden;connectable=0;fillColor=none;top=0;left=0;bottom=0;right=0;labelBackgroundColor=none;rounded=1;strokeColor=#909090;fontColor=#1A1A1A;" parent="mISCRe_RFVBFZnoGNRsq-148" vertex="1">
          <mxGeometry width="30" height="30" as="geometry">
            <mxRectangle width="30" height="30" as="alternateBounds" />
          </mxGeometry>
        </mxCell>
        <mxCell id="mISCRe_RFVBFZnoGNRsq-150" value="capital" style="shape=partialRectangle;overflow=hidden;connectable=0;fillColor=none;top=0;left=0;bottom=0;right=0;align=left;spacingLeft=6;labelBackgroundColor=none;rounded=1;strokeColor=#909090;fontColor=#1A1A1A;" parent="mISCRe_RFVBFZnoGNRsq-148" vertex="1">
          <mxGeometry x="30" width="220" height="30" as="geometry">
            <mxRectangle width="220" height="30" as="alternateBounds" />
          </mxGeometry>
        </mxCell>
        <mxCell id="mISCRe_RFVBFZnoGNRsq-151" value="" style="shape=partialRectangle;collapsible=0;dropTarget=0;pointerEvents=0;fillColor=none;points=[[0,0.5],[1,0.5]];portConstraint=eastwest;top=0;left=0;right=0;bottom=0;labelBackgroundColor=none;rounded=1;strokeColor=#909090;fontColor=#1A1A1A;" parent="mISCRe_RFVBFZnoGNRsq-132" vertex="1">
          <mxGeometry y="220" width="250" height="30" as="geometry" />
        </mxCell>
        <mxCell id="mISCRe_RFVBFZnoGNRsq-152" value="" style="shape=partialRectangle;overflow=hidden;connectable=0;fillColor=none;top=0;left=0;bottom=0;right=0;labelBackgroundColor=none;rounded=1;strokeColor=#909090;fontColor=#1A1A1A;" parent="mISCRe_RFVBFZnoGNRsq-151" vertex="1">
          <mxGeometry width="30" height="30" as="geometry">
            <mxRectangle width="30" height="30" as="alternateBounds" />
          </mxGeometry>
        </mxCell>
        <mxCell id="mISCRe_RFVBFZnoGNRsq-153" value="Codigo postal" style="shape=partialRectangle;overflow=hidden;connectable=0;fillColor=none;top=0;left=0;bottom=0;right=0;align=left;spacingLeft=6;labelBackgroundColor=none;rounded=1;strokeColor=#909090;fontColor=#1A1A1A;" parent="mISCRe_RFVBFZnoGNRsq-151" vertex="1">
          <mxGeometry x="30" width="220" height="30" as="geometry">
            <mxRectangle width="220" height="30" as="alternateBounds" />
          </mxGeometry>
        </mxCell>
        <mxCell id="mISCRe_RFVBFZnoGNRsq-154" value="" style="edgeStyle=entityRelationEdgeStyle;fontSize=12;html=1;endArrow=ERmandOne;startArrow=ERmandOne;rounded=1;exitX=1;exitY=0.5;exitDx=0;exitDy=0;labelBackgroundColor=none;fontColor=default;strokeColor=#182E3E;" parent="1" source="mISCRe_RFVBFZnoGNRsq-100" target="mISCRe_RFVBFZnoGNRsq-73" edge="1">
          <mxGeometry width="100" height="100" relative="1" as="geometry">
            <mxPoint x="801" y="1060" as="sourcePoint" />
            <mxPoint x="1050" y="790" as="targetPoint" />
            <Array as="points">
              <mxPoint x="980" y="860" />
              <mxPoint x="1070" y="940" />
            </Array>
          </mxGeometry>
        </mxCell>
        <mxCell id="mISCRe_RFVBFZnoGNRsq-156" value="" style="edgeStyle=entityRelationEdgeStyle;fontSize=12;html=1;endArrow=ERmandOne;startArrow=ERmandOne;rounded=1;exitX=0.998;exitY=0.889;exitDx=0;exitDy=0;exitPerimeter=0;entryX=0;entryY=0.5;entryDx=0;entryDy=0;labelBackgroundColor=none;fontColor=default;strokeColor=#182E3E;" parent="1" source="mISCRe_RFVBFZnoGNRsq-142" target="mISCRe_RFVBFZnoGNRsq-114" edge="1">
          <mxGeometry width="100" height="100" relative="1" as="geometry">
            <mxPoint x="320" y="220" as="sourcePoint" />
            <mxPoint x="420" y="120" as="targetPoint" />
          </mxGeometry>
        </mxCell>
        <mxCell id="NVIgVe-odFlYylcZKT-Y-1" value="Vehiculo" style="shape=table;startSize=25;container=1;collapsible=1;childLayout=tableLayout;fixedRows=1;rowLines=0;fontStyle=1;align=center;resizeLast=1;labelBackgroundColor=none;rounded=1;fillColor=#F5AB50;strokeColor=#909090;fontColor=#1A1A1A;arcSize=9;" parent="1" vertex="1">
          <mxGeometry x="290" y="605" width="250" height="250" as="geometry" />
        </mxCell>
        <mxCell id="NVIgVe-odFlYylcZKT-Y-2" value="" style="shape=partialRectangle;collapsible=0;dropTarget=0;pointerEvents=0;fillColor=none;points=[[0,0.5],[1,0.5]];portConstraint=eastwest;top=0;left=0;right=0;bottom=1;labelBackgroundColor=none;rounded=1;strokeColor=#909090;fontColor=#1A1A1A;" parent="NVIgVe-odFlYylcZKT-Y-1" vertex="1">
          <mxGeometry y="25" width="250" height="30" as="geometry" />
        </mxCell>
        <mxCell id="NVIgVe-odFlYylcZKT-Y-3" value="PK" style="shape=partialRectangle;overflow=hidden;connectable=0;fillColor=none;top=0;left=0;bottom=0;right=0;fontStyle=1;labelBackgroundColor=none;rounded=1;strokeColor=#909090;fontColor=#1A1A1A;" parent="NVIgVe-odFlYylcZKT-Y-2" vertex="1">
          <mxGeometry width="30" height="30" as="geometry">
            <mxRectangle width="30" height="30" as="alternateBounds" />
          </mxGeometry>
        </mxCell>
        <mxCell id="NVIgVe-odFlYylcZKT-Y-4" value="id_vehiculo" style="shape=partialRectangle;overflow=hidden;connectable=0;fillColor=none;top=0;left=0;bottom=0;right=0;align=left;spacingLeft=6;fontStyle=5;labelBackgroundColor=none;rounded=1;strokeColor=#909090;fontColor=#1A1A1A;" parent="NVIgVe-odFlYylcZKT-Y-2" vertex="1">
          <mxGeometry x="30" width="220" height="30" as="geometry">
            <mxRectangle width="220" height="30" as="alternateBounds" />
          </mxGeometry>
        </mxCell>
        <mxCell id="NVIgVe-odFlYylcZKT-Y-5" value="" style="shape=partialRectangle;collapsible=0;dropTarget=0;pointerEvents=0;fillColor=none;points=[[0,0.5],[1,0.5]];portConstraint=eastwest;top=0;left=0;right=0;bottom=0;labelBackgroundColor=none;rounded=1;strokeColor=#909090;fontColor=#1A1A1A;" parent="NVIgVe-odFlYylcZKT-Y-1" vertex="1">
          <mxGeometry y="55" width="250" height="30" as="geometry" />
        </mxCell>
        <mxCell id="NVIgVe-odFlYylcZKT-Y-6" value="FK" style="shape=partialRectangle;overflow=hidden;connectable=0;fillColor=none;top=0;left=0;bottom=0;right=0;labelBackgroundColor=none;rounded=1;strokeColor=#909090;fontColor=#1A1A1A;" parent="NVIgVe-odFlYylcZKT-Y-5" vertex="1">
          <mxGeometry width="30" height="30" as="geometry">
            <mxRectangle width="30" height="30" as="alternateBounds" />
          </mxGeometry>
        </mxCell>
        <mxCell id="NVIgVe-odFlYylcZKT-Y-7" value="id_tipo_vehiculo" style="shape=partialRectangle;overflow=hidden;connectable=0;fillColor=none;top=0;left=0;bottom=0;right=0;align=left;spacingLeft=6;labelBackgroundColor=none;rounded=1;strokeColor=#909090;fontColor=#1A1A1A;" parent="NVIgVe-odFlYylcZKT-Y-5" vertex="1">
          <mxGeometry x="30" width="220" height="30" as="geometry">
            <mxRectangle width="220" height="30" as="alternateBounds" />
          </mxGeometry>
        </mxCell>
        <mxCell id="NVIgVe-odFlYylcZKT-Y-8" value="" style="shape=partialRectangle;collapsible=0;dropTarget=0;pointerEvents=0;fillColor=none;points=[[0,0.5],[1,0.5]];portConstraint=eastwest;top=0;left=0;right=0;bottom=0;labelBackgroundColor=none;rounded=1;strokeColor=#909090;fontColor=#1A1A1A;" parent="NVIgVe-odFlYylcZKT-Y-1" vertex="1">
          <mxGeometry y="85" width="250" height="40" as="geometry" />
        </mxCell>
        <mxCell id="NVIgVe-odFlYylcZKT-Y-9" value="" style="shape=partialRectangle;overflow=hidden;connectable=0;fillColor=none;top=0;left=0;bottom=0;right=0;labelBackgroundColor=none;rounded=1;strokeColor=#909090;fontColor=#1A1A1A;" parent="NVIgVe-odFlYylcZKT-Y-8" vertex="1">
          <mxGeometry width="30" height="40" as="geometry">
            <mxRectangle width="30" height="40" as="alternateBounds" />
          </mxGeometry>
        </mxCell>
        <mxCell id="NVIgVe-odFlYylcZKT-Y-10" value="placa" style="shape=partialRectangle;overflow=hidden;connectable=0;fillColor=none;top=0;left=0;bottom=0;right=0;align=left;spacingLeft=6;labelBackgroundColor=none;rounded=1;strokeColor=#909090;fontColor=#1A1A1A;" parent="NVIgVe-odFlYylcZKT-Y-8" vertex="1">
          <mxGeometry x="30" width="220" height="40" as="geometry">
            <mxRectangle width="220" height="40" as="alternateBounds" />
          </mxGeometry>
        </mxCell>
        <mxCell id="NVIgVe-odFlYylcZKT-Y-11" value="" style="shape=partialRectangle;collapsible=0;dropTarget=0;pointerEvents=0;fillColor=none;points=[[0,0.5],[1,0.5]];portConstraint=eastwest;top=0;left=0;right=0;bottom=0;labelBackgroundColor=none;rounded=1;strokeColor=#909090;fontColor=#1A1A1A;" parent="NVIgVe-odFlYylcZKT-Y-1" vertex="1">
          <mxGeometry y="125" width="250" height="30" as="geometry" />
        </mxCell>
        <mxCell id="NVIgVe-odFlYylcZKT-Y-12" value="" style="shape=partialRectangle;overflow=hidden;connectable=0;fillColor=none;top=0;left=0;bottom=0;right=0;labelBackgroundColor=none;rounded=1;strokeColor=#909090;fontColor=#1A1A1A;" parent="NVIgVe-odFlYylcZKT-Y-11" vertex="1">
          <mxGeometry width="30" height="30" as="geometry">
            <mxRectangle width="30" height="30" as="alternateBounds" />
          </mxGeometry>
        </mxCell>
        <mxCell id="NVIgVe-odFlYylcZKT-Y-13" value="color" style="shape=partialRectangle;overflow=hidden;connectable=0;fillColor=none;top=0;left=0;bottom=0;right=0;align=left;spacingLeft=6;labelBackgroundColor=none;rounded=1;strokeColor=#909090;fontColor=#1A1A1A;" parent="NVIgVe-odFlYylcZKT-Y-11" vertex="1">
          <mxGeometry x="30" width="220" height="30" as="geometry">
            <mxRectangle width="220" height="30" as="alternateBounds" />
          </mxGeometry>
        </mxCell>
        <mxCell id="NVIgVe-odFlYylcZKT-Y-14" value="" style="shape=partialRectangle;collapsible=0;dropTarget=0;pointerEvents=0;fillColor=none;points=[[0,0.5],[1,0.5]];portConstraint=eastwest;top=0;left=0;right=0;bottom=0;labelBackgroundColor=none;rounded=1;strokeColor=#909090;fontColor=#1A1A1A;" parent="NVIgVe-odFlYylcZKT-Y-1" vertex="1">
          <mxGeometry y="155" width="250" height="30" as="geometry" />
        </mxCell>
        <mxCell id="NVIgVe-odFlYylcZKT-Y-15" value="" style="shape=partialRectangle;overflow=hidden;connectable=0;fillColor=none;top=0;left=0;bottom=0;right=0;labelBackgroundColor=none;rounded=1;strokeColor=#909090;fontColor=#1A1A1A;" parent="NVIgVe-odFlYylcZKT-Y-14" vertex="1">
          <mxGeometry width="30" height="30" as="geometry">
            <mxRectangle width="30" height="30" as="alternateBounds" />
          </mxGeometry>
        </mxCell>
        <mxCell id="NVIgVe-odFlYylcZKT-Y-16" value="" style="shape=partialRectangle;overflow=hidden;connectable=0;fillColor=none;top=0;left=0;bottom=0;right=0;align=left;spacingLeft=6;labelBackgroundColor=none;rounded=1;strokeColor=#909090;fontColor=#1A1A1A;" parent="NVIgVe-odFlYylcZKT-Y-14" vertex="1">
          <mxGeometry x="30" width="220" height="30" as="geometry">
            <mxRectangle width="220" height="30" as="alternateBounds" />
          </mxGeometry>
        </mxCell>
        <mxCell id="NVIgVe-odFlYylcZKT-Y-17" value="" style="shape=partialRectangle;collapsible=0;dropTarget=0;pointerEvents=0;fillColor=none;points=[[0,0.5],[1,0.5]];portConstraint=eastwest;top=0;left=0;right=0;bottom=0;labelBackgroundColor=none;rounded=1;strokeColor=#909090;fontColor=#1A1A1A;" parent="NVIgVe-odFlYylcZKT-Y-1" vertex="1">
          <mxGeometry y="185" width="250" height="30" as="geometry" />
        </mxCell>
        <mxCell id="NVIgVe-odFlYylcZKT-Y-18" value="" style="shape=partialRectangle;overflow=hidden;connectable=0;fillColor=none;top=0;left=0;bottom=0;right=0;labelBackgroundColor=none;rounded=1;strokeColor=#909090;fontColor=#1A1A1A;" parent="NVIgVe-odFlYylcZKT-Y-17" vertex="1">
          <mxGeometry width="30" height="30" as="geometry">
            <mxRectangle width="30" height="30" as="alternateBounds" />
          </mxGeometry>
        </mxCell>
        <mxCell id="NVIgVe-odFlYylcZKT-Y-19" value="" style="shape=partialRectangle;overflow=hidden;connectable=0;fillColor=none;top=0;left=0;bottom=0;right=0;align=left;spacingLeft=6;labelBackgroundColor=none;rounded=1;strokeColor=#909090;fontColor=#1A1A1A;" parent="NVIgVe-odFlYylcZKT-Y-17" vertex="1">
          <mxGeometry x="30" width="220" height="30" as="geometry">
            <mxRectangle width="220" height="30" as="alternateBounds" />
          </mxGeometry>
        </mxCell>
        <mxCell id="NVIgVe-odFlYylcZKT-Y-20" value="" style="shape=partialRectangle;collapsible=0;dropTarget=0;pointerEvents=0;fillColor=none;points=[[0,0.5],[1,0.5]];portConstraint=eastwest;top=0;left=0;right=0;bottom=0;labelBackgroundColor=none;rounded=1;strokeColor=#909090;fontColor=#1A1A1A;" parent="NVIgVe-odFlYylcZKT-Y-1" vertex="1">
          <mxGeometry y="215" width="250" height="30" as="geometry" />
        </mxCell>
        <mxCell id="NVIgVe-odFlYylcZKT-Y-21" value="" style="shape=partialRectangle;overflow=hidden;connectable=0;fillColor=none;top=0;left=0;bottom=0;right=0;labelBackgroundColor=none;rounded=1;strokeColor=#909090;fontColor=#1A1A1A;" parent="NVIgVe-odFlYylcZKT-Y-20" vertex="1">
          <mxGeometry width="30" height="30" as="geometry">
            <mxRectangle width="30" height="30" as="alternateBounds" />
          </mxGeometry>
        </mxCell>
        <mxCell id="NVIgVe-odFlYylcZKT-Y-22" value="" style="shape=partialRectangle;overflow=hidden;connectable=0;fillColor=none;top=0;left=0;bottom=0;right=0;align=left;spacingLeft=6;labelBackgroundColor=none;rounded=1;strokeColor=#909090;fontColor=#1A1A1A;" parent="NVIgVe-odFlYylcZKT-Y-20" vertex="1">
          <mxGeometry x="30" width="220" height="30" as="geometry">
            <mxRectangle width="220" height="30" as="alternateBounds" />
          </mxGeometry>
        </mxCell>
        <mxCell id="NVIgVe-odFlYylcZKT-Y-23" value="Tipo_vehiculo" style="shape=table;startSize=25;container=1;collapsible=1;childLayout=tableLayout;fixedRows=1;rowLines=0;fontStyle=1;align=center;resizeLast=1;labelBackgroundColor=none;rounded=1;fillColor=#F5AB50;strokeColor=#909090;fontColor=#1A1A1A;" parent="1" vertex="1">
          <mxGeometry x="-100" y="595" width="250" height="250" as="geometry" />
        </mxCell>
        <mxCell id="NVIgVe-odFlYylcZKT-Y-24" value="" style="shape=partialRectangle;collapsible=0;dropTarget=0;pointerEvents=0;fillColor=none;points=[[0,0.5],[1,0.5]];portConstraint=eastwest;top=0;left=0;right=0;bottom=1;labelBackgroundColor=none;rounded=1;strokeColor=#909090;fontColor=#1A1A1A;" parent="NVIgVe-odFlYylcZKT-Y-23" vertex="1">
          <mxGeometry y="25" width="250" height="30" as="geometry" />
        </mxCell>
        <mxCell id="NVIgVe-odFlYylcZKT-Y-25" value="PK" style="shape=partialRectangle;overflow=hidden;connectable=0;fillColor=none;top=0;left=0;bottom=0;right=0;fontStyle=1;labelBackgroundColor=none;rounded=1;strokeColor=#909090;fontColor=#1A1A1A;" parent="NVIgVe-odFlYylcZKT-Y-24" vertex="1">
          <mxGeometry width="30" height="30" as="geometry">
            <mxRectangle width="30" height="30" as="alternateBounds" />
          </mxGeometry>
        </mxCell>
        <mxCell id="NVIgVe-odFlYylcZKT-Y-26" value="id_tipo_vehiculo" style="shape=partialRectangle;overflow=hidden;connectable=0;fillColor=none;top=0;left=0;bottom=0;right=0;align=left;spacingLeft=6;fontStyle=5;labelBackgroundColor=none;rounded=1;strokeColor=#909090;fontColor=#1A1A1A;" parent="NVIgVe-odFlYylcZKT-Y-24" vertex="1">
          <mxGeometry x="30" width="220" height="30" as="geometry">
            <mxRectangle width="220" height="30" as="alternateBounds" />
          </mxGeometry>
        </mxCell>
        <mxCell id="NVIgVe-odFlYylcZKT-Y-27" value="" style="shape=partialRectangle;collapsible=0;dropTarget=0;pointerEvents=0;fillColor=none;points=[[0,0.5],[1,0.5]];portConstraint=eastwest;top=0;left=0;right=0;bottom=0;labelBackgroundColor=none;rounded=1;strokeColor=#909090;fontColor=#1A1A1A;" parent="NVIgVe-odFlYylcZKT-Y-23" vertex="1">
          <mxGeometry y="55" width="250" height="30" as="geometry" />
        </mxCell>
        <mxCell id="NVIgVe-odFlYylcZKT-Y-28" value="FK" style="shape=partialRectangle;overflow=hidden;connectable=0;fillColor=none;top=0;left=0;bottom=0;right=0;labelBackgroundColor=none;rounded=1;strokeColor=#909090;fontColor=#1A1A1A;" parent="NVIgVe-odFlYylcZKT-Y-27" vertex="1">
          <mxGeometry width="30" height="30" as="geometry">
            <mxRectangle width="30" height="30" as="alternateBounds" />
          </mxGeometry>
        </mxCell>
        <mxCell id="NVIgVe-odFlYylcZKT-Y-29" value="id_vehiculo" style="shape=partialRectangle;overflow=hidden;connectable=0;fillColor=none;top=0;left=0;bottom=0;right=0;align=left;spacingLeft=6;labelBackgroundColor=none;rounded=1;strokeColor=#909090;fontColor=#1A1A1A;" parent="NVIgVe-odFlYylcZKT-Y-27" vertex="1">
          <mxGeometry x="30" width="220" height="30" as="geometry">
            <mxRectangle width="220" height="30" as="alternateBounds" />
          </mxGeometry>
        </mxCell>
        <mxCell id="NVIgVe-odFlYylcZKT-Y-30" value="" style="shape=partialRectangle;collapsible=0;dropTarget=0;pointerEvents=0;fillColor=none;points=[[0,0.5],[1,0.5]];portConstraint=eastwest;top=0;left=0;right=0;bottom=0;labelBackgroundColor=none;rounded=1;strokeColor=#909090;fontColor=#1A1A1A;" parent="NVIgVe-odFlYylcZKT-Y-23" vertex="1">
          <mxGeometry y="85" width="250" height="40" as="geometry" />
        </mxCell>
        <mxCell id="NVIgVe-odFlYylcZKT-Y-31" value="" style="shape=partialRectangle;overflow=hidden;connectable=0;fillColor=none;top=0;left=0;bottom=0;right=0;labelBackgroundColor=none;rounded=1;strokeColor=#909090;fontColor=#1A1A1A;" parent="NVIgVe-odFlYylcZKT-Y-30" vertex="1">
          <mxGeometry width="30" height="40" as="geometry">
            <mxRectangle width="30" height="40" as="alternateBounds" />
          </mxGeometry>
        </mxCell>
        <mxCell id="NVIgVe-odFlYylcZKT-Y-32" value="Dimensiones_fisicas" style="shape=partialRectangle;overflow=hidden;connectable=0;fillColor=none;top=0;left=0;bottom=0;right=0;align=left;spacingLeft=6;labelBackgroundColor=none;rounded=1;strokeColor=#909090;fontColor=#1A1A1A;" parent="NVIgVe-odFlYylcZKT-Y-30" vertex="1">
          <mxGeometry x="30" width="220" height="40" as="geometry">
            <mxRectangle width="220" height="40" as="alternateBounds" />
          </mxGeometry>
        </mxCell>
        <mxCell id="NVIgVe-odFlYylcZKT-Y-33" value="" style="shape=partialRectangle;collapsible=0;dropTarget=0;pointerEvents=0;fillColor=none;points=[[0,0.5],[1,0.5]];portConstraint=eastwest;top=0;left=0;right=0;bottom=0;labelBackgroundColor=none;rounded=1;strokeColor=#909090;fontColor=#1A1A1A;" parent="NVIgVe-odFlYylcZKT-Y-23" vertex="1">
          <mxGeometry y="125" width="250" height="30" as="geometry" />
        </mxCell>
        <mxCell id="NVIgVe-odFlYylcZKT-Y-34" value="" style="shape=partialRectangle;overflow=hidden;connectable=0;fillColor=none;top=0;left=0;bottom=0;right=0;labelBackgroundColor=none;rounded=1;strokeColor=#909090;fontColor=#1A1A1A;" parent="NVIgVe-odFlYylcZKT-Y-33" vertex="1">
          <mxGeometry width="30" height="30" as="geometry">
            <mxRectangle width="30" height="30" as="alternateBounds" />
          </mxGeometry>
        </mxCell>
        <mxCell id="NVIgVe-odFlYylcZKT-Y-35" value="Pasajeros" style="shape=partialRectangle;overflow=hidden;connectable=0;fillColor=none;top=0;left=0;bottom=0;right=0;align=left;spacingLeft=6;labelBackgroundColor=none;rounded=1;strokeColor=#909090;fontColor=#1A1A1A;" parent="NVIgVe-odFlYylcZKT-Y-33" vertex="1">
          <mxGeometry x="30" width="220" height="30" as="geometry">
            <mxRectangle width="220" height="30" as="alternateBounds" />
          </mxGeometry>
        </mxCell>
        <mxCell id="NVIgVe-odFlYylcZKT-Y-36" value="" style="shape=partialRectangle;collapsible=0;dropTarget=0;pointerEvents=0;fillColor=none;points=[[0,0.5],[1,0.5]];portConstraint=eastwest;top=0;left=0;right=0;bottom=0;labelBackgroundColor=none;rounded=1;strokeColor=#909090;fontColor=#1A1A1A;" parent="NVIgVe-odFlYylcZKT-Y-23" vertex="1">
          <mxGeometry y="155" width="250" height="30" as="geometry" />
        </mxCell>
        <mxCell id="NVIgVe-odFlYylcZKT-Y-37" value="" style="shape=partialRectangle;overflow=hidden;connectable=0;fillColor=none;top=0;left=0;bottom=0;right=0;labelBackgroundColor=none;rounded=1;strokeColor=#909090;fontColor=#1A1A1A;" parent="NVIgVe-odFlYylcZKT-Y-36" vertex="1">
          <mxGeometry width="30" height="30" as="geometry">
            <mxRectangle width="30" height="30" as="alternateBounds" />
          </mxGeometry>
        </mxCell>
        <mxCell id="NVIgVe-odFlYylcZKT-Y-38" value="" style="shape=partialRectangle;overflow=hidden;connectable=0;fillColor=none;top=0;left=0;bottom=0;right=0;align=left;spacingLeft=6;labelBackgroundColor=none;rounded=1;strokeColor=#909090;fontColor=#1A1A1A;" parent="NVIgVe-odFlYylcZKT-Y-36" vertex="1">
          <mxGeometry x="30" width="220" height="30" as="geometry">
            <mxRectangle width="220" height="30" as="alternateBounds" />
          </mxGeometry>
        </mxCell>
        <mxCell id="NVIgVe-odFlYylcZKT-Y-39" value="" style="shape=partialRectangle;collapsible=0;dropTarget=0;pointerEvents=0;fillColor=none;points=[[0,0.5],[1,0.5]];portConstraint=eastwest;top=0;left=0;right=0;bottom=0;labelBackgroundColor=none;rounded=1;strokeColor=#909090;fontColor=#1A1A1A;" parent="NVIgVe-odFlYylcZKT-Y-23" vertex="1">
          <mxGeometry y="185" width="250" height="30" as="geometry" />
        </mxCell>
        <mxCell id="NVIgVe-odFlYylcZKT-Y-40" value="" style="shape=partialRectangle;overflow=hidden;connectable=0;fillColor=none;top=0;left=0;bottom=0;right=0;labelBackgroundColor=none;rounded=1;strokeColor=#909090;fontColor=#1A1A1A;" parent="NVIgVe-odFlYylcZKT-Y-39" vertex="1">
          <mxGeometry width="30" height="30" as="geometry">
            <mxRectangle width="30" height="30" as="alternateBounds" />
          </mxGeometry>
        </mxCell>
        <mxCell id="NVIgVe-odFlYylcZKT-Y-41" value="" style="shape=partialRectangle;overflow=hidden;connectable=0;fillColor=none;top=0;left=0;bottom=0;right=0;align=left;spacingLeft=6;labelBackgroundColor=none;rounded=1;strokeColor=#909090;fontColor=#1A1A1A;" parent="NVIgVe-odFlYylcZKT-Y-39" vertex="1">
          <mxGeometry x="30" width="220" height="30" as="geometry">
            <mxRectangle width="220" height="30" as="alternateBounds" />
          </mxGeometry>
        </mxCell>
        <mxCell id="NVIgVe-odFlYylcZKT-Y-42" value="" style="shape=partialRectangle;collapsible=0;dropTarget=0;pointerEvents=0;fillColor=none;points=[[0,0.5],[1,0.5]];portConstraint=eastwest;top=0;left=0;right=0;bottom=0;labelBackgroundColor=none;rounded=1;strokeColor=#909090;fontColor=#1A1A1A;" parent="NVIgVe-odFlYylcZKT-Y-23" vertex="1">
          <mxGeometry y="215" width="250" height="30" as="geometry" />
        </mxCell>
        <mxCell id="NVIgVe-odFlYylcZKT-Y-43" value="" style="shape=partialRectangle;overflow=hidden;connectable=0;fillColor=none;top=0;left=0;bottom=0;right=0;labelBackgroundColor=none;rounded=1;strokeColor=#909090;fontColor=#1A1A1A;" parent="NVIgVe-odFlYylcZKT-Y-42" vertex="1">
          <mxGeometry width="30" height="30" as="geometry">
            <mxRectangle width="30" height="30" as="alternateBounds" />
          </mxGeometry>
        </mxCell>
        <mxCell id="NVIgVe-odFlYylcZKT-Y-44" value="" style="shape=partialRectangle;overflow=hidden;connectable=0;fillColor=none;top=0;left=0;bottom=0;right=0;align=left;spacingLeft=6;labelBackgroundColor=none;rounded=1;strokeColor=#909090;fontColor=#1A1A1A;" parent="NVIgVe-odFlYylcZKT-Y-42" vertex="1">
          <mxGeometry x="30" width="220" height="30" as="geometry">
            <mxRectangle width="220" height="30" as="alternateBounds" />
          </mxGeometry>
        </mxCell>
        <mxCell id="NVIgVe-odFlYylcZKT-Y-45" value="Pais" style="shape=table;startSize=25;container=1;collapsible=1;childLayout=tableLayout;fixedRows=1;rowLines=0;fontStyle=1;align=center;resizeLast=1;labelBackgroundColor=none;rounded=1;fillColor=#F5AB50;strokeColor=#909090;fontColor=#1A1A1A;" parent="1" vertex="1">
          <mxGeometry x="-320" y="80" width="250" height="150" as="geometry" />
        </mxCell>
        <mxCell id="NVIgVe-odFlYylcZKT-Y-46" value="" style="shape=partialRectangle;collapsible=0;dropTarget=0;pointerEvents=0;fillColor=none;points=[[0,0.5],[1,0.5]];portConstraint=eastwest;top=0;left=0;right=0;bottom=1;labelBackgroundColor=none;rounded=1;strokeColor=#909090;fontColor=#1A1A1A;" parent="NVIgVe-odFlYylcZKT-Y-45" vertex="1">
          <mxGeometry y="25" width="250" height="30" as="geometry" />
        </mxCell>
        <mxCell id="NVIgVe-odFlYylcZKT-Y-47" value="PK" style="shape=partialRectangle;overflow=hidden;connectable=0;fillColor=none;top=0;left=0;bottom=0;right=0;fontStyle=1;labelBackgroundColor=none;rounded=1;strokeColor=#909090;fontColor=#1A1A1A;" parent="NVIgVe-odFlYylcZKT-Y-46" vertex="1">
          <mxGeometry width="30" height="30" as="geometry">
            <mxRectangle width="30" height="30" as="alternateBounds" />
          </mxGeometry>
        </mxCell>
        <mxCell id="NVIgVe-odFlYylcZKT-Y-48" value="id_pais" style="shape=partialRectangle;overflow=hidden;connectable=0;fillColor=none;top=0;left=0;bottom=0;right=0;align=left;spacingLeft=6;fontStyle=5;labelBackgroundColor=none;rounded=1;strokeColor=#909090;fontColor=#1A1A1A;" parent="NVIgVe-odFlYylcZKT-Y-46" vertex="1">
          <mxGeometry x="30" width="220" height="30" as="geometry">
            <mxRectangle width="220" height="30" as="alternateBounds" />
          </mxGeometry>
        </mxCell>
        <mxCell id="NVIgVe-odFlYylcZKT-Y-49" value="" style="shape=partialRectangle;collapsible=0;dropTarget=0;pointerEvents=0;fillColor=none;points=[[0,0.5],[1,0.5]];portConstraint=eastwest;top=0;left=0;right=0;bottom=0;labelBackgroundColor=none;rounded=1;strokeColor=#909090;fontColor=#1A1A1A;" parent="NVIgVe-odFlYylcZKT-Y-45" vertex="1">
          <mxGeometry y="55" width="250" height="25" as="geometry" />
        </mxCell>
        <mxCell id="NVIgVe-odFlYylcZKT-Y-50" value="" style="shape=partialRectangle;overflow=hidden;connectable=0;fillColor=none;top=0;left=0;bottom=0;right=0;labelBackgroundColor=none;rounded=1;strokeColor=#909090;fontColor=#1A1A1A;" parent="NVIgVe-odFlYylcZKT-Y-49" vertex="1">
          <mxGeometry width="30" height="25" as="geometry">
            <mxRectangle width="30" height="25" as="alternateBounds" />
          </mxGeometry>
        </mxCell>
        <mxCell id="NVIgVe-odFlYylcZKT-Y-51" value="Nombre" style="shape=partialRectangle;overflow=hidden;connectable=0;fillColor=none;top=0;left=0;bottom=0;right=0;align=left;spacingLeft=6;labelBackgroundColor=none;rounded=1;strokeColor=#909090;fontColor=#1A1A1A;" parent="NVIgVe-odFlYylcZKT-Y-49" vertex="1">
          <mxGeometry x="30" width="220" height="25" as="geometry">
            <mxRectangle width="220" height="25" as="alternateBounds" />
          </mxGeometry>
        </mxCell>
        <mxCell id="NVIgVe-odFlYylcZKT-Y-52" value="" style="shape=partialRectangle;collapsible=0;dropTarget=0;pointerEvents=0;fillColor=none;points=[[0,0.5],[1,0.5]];portConstraint=eastwest;top=0;left=0;right=0;bottom=0;labelBackgroundColor=none;rounded=1;strokeColor=#909090;fontColor=#1A1A1A;" parent="NVIgVe-odFlYylcZKT-Y-45" vertex="1">
          <mxGeometry y="80" width="250" height="40" as="geometry" />
        </mxCell>
        <mxCell id="NVIgVe-odFlYylcZKT-Y-53" value="" style="shape=partialRectangle;overflow=hidden;connectable=0;fillColor=none;top=0;left=0;bottom=0;right=0;labelBackgroundColor=none;rounded=1;strokeColor=#909090;fontColor=#1A1A1A;" parent="NVIgVe-odFlYylcZKT-Y-52" vertex="1">
          <mxGeometry width="30" height="40" as="geometry">
            <mxRectangle width="30" height="40" as="alternateBounds" />
          </mxGeometry>
        </mxCell>
        <mxCell id="NVIgVe-odFlYylcZKT-Y-54" value="Area" style="shape=partialRectangle;overflow=hidden;connectable=0;fillColor=none;top=0;left=0;bottom=0;right=0;align=left;spacingLeft=6;labelBackgroundColor=none;rounded=1;strokeColor=#909090;fontColor=#1A1A1A;" parent="NVIgVe-odFlYylcZKT-Y-52" vertex="1">
          <mxGeometry x="30" width="220" height="40" as="geometry">
            <mxRectangle width="220" height="40" as="alternateBounds" />
          </mxGeometry>
        </mxCell>
        <mxCell id="NVIgVe-odFlYylcZKT-Y-55" value="" style="shape=partialRectangle;collapsible=0;dropTarget=0;pointerEvents=0;fillColor=none;points=[[0,0.5],[1,0.5]];portConstraint=eastwest;top=0;left=0;right=0;bottom=0;labelBackgroundColor=none;rounded=1;strokeColor=#909090;fontColor=#1A1A1A;" parent="NVIgVe-odFlYylcZKT-Y-45" vertex="1">
          <mxGeometry y="120" width="250" height="30" as="geometry" />
        </mxCell>
        <mxCell id="NVIgVe-odFlYylcZKT-Y-56" value="" style="shape=partialRectangle;overflow=hidden;connectable=0;fillColor=none;top=0;left=0;bottom=0;right=0;labelBackgroundColor=none;rounded=1;strokeColor=#909090;fontColor=#1A1A1A;" parent="NVIgVe-odFlYylcZKT-Y-55" vertex="1">
          <mxGeometry width="30" height="30" as="geometry">
            <mxRectangle width="30" height="30" as="alternateBounds" />
          </mxGeometry>
        </mxCell>
        <mxCell id="NVIgVe-odFlYylcZKT-Y-57" value="Logintud y latitud" style="shape=partialRectangle;overflow=hidden;connectable=0;fillColor=none;top=0;left=0;bottom=0;right=0;align=left;spacingLeft=6;labelBackgroundColor=none;rounded=1;strokeColor=#909090;fontColor=#1A1A1A;" parent="NVIgVe-odFlYylcZKT-Y-55" vertex="1">
          <mxGeometry x="30" width="220" height="30" as="geometry">
            <mxRectangle width="220" height="30" as="alternateBounds" />
          </mxGeometry>
        </mxCell>
        <mxCell id="NVIgVe-odFlYylcZKT-Y-71" value="" style="edgeStyle=entityRelationEdgeStyle;fontSize=12;html=1;endArrow=ERoneToMany;startArrow=ERmandOne;rounded=1;entryX=0;entryY=0.5;entryDx=0;entryDy=0;exitX=1;exitY=0.5;exitDx=0;exitDy=0;labelBackgroundColor=none;fontColor=default;strokeColor=#182E3E;" parent="1" source="mISCRe_RFVBFZnoGNRsq-123" target="mISCRe_RFVBFZnoGNRsq-34" edge="1">
          <mxGeometry width="100" height="100" relative="1" as="geometry">
            <mxPoint x="10" y="460" as="sourcePoint" />
            <mxPoint x="110" y="360" as="targetPoint" />
          </mxGeometry>
        </mxCell>
        <mxCell id="NVIgVe-odFlYylcZKT-Y-116" value="" style="edgeStyle=entityRelationEdgeStyle;fontSize=12;html=1;endArrow=ERoneToMany;startArrow=ERmandOne;rounded=1;entryX=0;entryY=0.5;entryDx=0;entryDy=0;exitX=1;exitY=0.5;exitDx=0;exitDy=0;labelBackgroundColor=none;fontColor=default;strokeColor=#182E3E;" parent="1" source="NVIgVe-odFlYylcZKT-Y-52" target="mISCRe_RFVBFZnoGNRsq-145" edge="1">
          <mxGeometry width="100" height="100" relative="1" as="geometry">
            <mxPoint x="-160" y="317.5" as="sourcePoint" />
            <mxPoint x="-70" y="327.5" as="targetPoint" />
          </mxGeometry>
        </mxCell>
        <mxCell id="Ls1Lj3jsYAmeLlco6irF-24" value="" style="edgeStyle=entityRelationEdgeStyle;fontSize=12;html=1;endArrow=ERoneToMany;startArrow=ERmandOne;rounded=1;entryX=1;entryY=0.5;entryDx=0;entryDy=0;exitX=0;exitY=0.5;exitDx=0;exitDy=0;labelBackgroundColor=none;fontColor=default;strokeColor=#182E3E;" parent="1" source="mISCRe_RFVBFZnoGNRsq-88" target="NVIgVe-odFlYylcZKT-Y-14" edge="1">
          <mxGeometry width="100" height="100" relative="1" as="geometry">
            <mxPoint x="230" y="1040" as="sourcePoint" />
            <mxPoint x="330" y="940" as="targetPoint" />
          </mxGeometry>
        </mxCell>
        <mxCell id="TqMfUqlv04EFE84Wg3QB-1" value="" style="edgeStyle=entityRelationEdgeStyle;fontSize=12;html=1;endArrow=ERoneToMany;rounded=1;entryX=1.018;entryY=0.146;entryDx=0;entryDy=0;entryPerimeter=0;exitX=0;exitY=0.5;exitDx=0;exitDy=0;labelBackgroundColor=none;fontColor=default;strokeColor=#182E3E;" parent="1" source="NVIgVe-odFlYylcZKT-Y-14" target="NVIgVe-odFlYylcZKT-Y-30" edge="1">
          <mxGeometry width="100" height="100" relative="1" as="geometry">
            <mxPoint x="10" y="740" as="sourcePoint" />
            <mxPoint x="110" y="640" as="targetPoint" />
          </mxGeometry>
        </mxCell>
        <mxCell id="TqMfUqlv04EFE84Wg3QB-2" value="Vehiculos de carga" style="shape=table;startSize=25;container=1;collapsible=1;childLayout=tableLayout;fixedRows=1;rowLines=0;fontStyle=1;align=center;resizeLast=1;labelBackgroundColor=none;rounded=1;fillColor=#F5AB50;strokeColor=#909090;fontColor=#1A1A1A;" parent="1" vertex="1">
          <mxGeometry x="-500" y="930" width="250" height="155" as="geometry" />
        </mxCell>
        <mxCell id="TqMfUqlv04EFE84Wg3QB-3" value="" style="shape=partialRectangle;collapsible=0;dropTarget=0;pointerEvents=0;fillColor=none;points=[[0,0.5],[1,0.5]];portConstraint=eastwest;top=0;left=0;right=0;bottom=1;labelBackgroundColor=none;rounded=1;strokeColor=#909090;fontColor=#1A1A1A;" parent="TqMfUqlv04EFE84Wg3QB-2" vertex="1">
          <mxGeometry y="25" width="250" height="30" as="geometry" />
        </mxCell>
        <mxCell id="TqMfUqlv04EFE84Wg3QB-4" value="PK" style="shape=partialRectangle;overflow=hidden;connectable=0;fillColor=none;top=0;left=0;bottom=0;right=0;fontStyle=1;labelBackgroundColor=none;rounded=1;strokeColor=#909090;fontColor=#1A1A1A;" parent="TqMfUqlv04EFE84Wg3QB-3" vertex="1">
          <mxGeometry width="30" height="30" as="geometry">
            <mxRectangle width="30" height="30" as="alternateBounds" />
          </mxGeometry>
        </mxCell>
        <mxCell id="TqMfUqlv04EFE84Wg3QB-5" value="id_vehiculos_de_carga" style="shape=partialRectangle;overflow=hidden;connectable=0;fillColor=none;top=0;left=0;bottom=0;right=0;align=left;spacingLeft=6;fontStyle=5;labelBackgroundColor=none;rounded=1;strokeColor=#909090;fontColor=#1A1A1A;" parent="TqMfUqlv04EFE84Wg3QB-3" vertex="1">
          <mxGeometry x="30" width="220" height="30" as="geometry">
            <mxRectangle width="220" height="30" as="alternateBounds" />
          </mxGeometry>
        </mxCell>
        <mxCell id="TqMfUqlv04EFE84Wg3QB-6" value="" style="shape=partialRectangle;collapsible=0;dropTarget=0;pointerEvents=0;fillColor=none;points=[[0,0.5],[1,0.5]];portConstraint=eastwest;top=0;left=0;right=0;bottom=0;labelBackgroundColor=none;rounded=1;strokeColor=#909090;fontColor=#1A1A1A;" parent="TqMfUqlv04EFE84Wg3QB-2" vertex="1">
          <mxGeometry y="55" width="250" height="30" as="geometry" />
        </mxCell>
        <mxCell id="TqMfUqlv04EFE84Wg3QB-7" value="FK" style="shape=partialRectangle;overflow=hidden;connectable=0;fillColor=none;top=0;left=0;bottom=0;right=0;labelBackgroundColor=none;rounded=1;strokeColor=#909090;fontColor=#1A1A1A;" parent="TqMfUqlv04EFE84Wg3QB-6" vertex="1">
          <mxGeometry width="30" height="30" as="geometry">
            <mxRectangle width="30" height="30" as="alternateBounds" />
          </mxGeometry>
        </mxCell>
        <mxCell id="TqMfUqlv04EFE84Wg3QB-8" value="id_tipo_vehiculo" style="shape=partialRectangle;overflow=hidden;connectable=0;fillColor=none;top=0;left=0;bottom=0;right=0;align=left;spacingLeft=6;labelBackgroundColor=none;rounded=1;strokeColor=#909090;fontColor=#1A1A1A;" parent="TqMfUqlv04EFE84Wg3QB-6" vertex="1">
          <mxGeometry x="30" width="220" height="30" as="geometry">
            <mxRectangle width="220" height="30" as="alternateBounds" />
          </mxGeometry>
        </mxCell>
        <mxCell id="TqMfUqlv04EFE84Wg3QB-9" value="" style="shape=partialRectangle;collapsible=0;dropTarget=0;pointerEvents=0;fillColor=none;points=[[0,0.5],[1,0.5]];portConstraint=eastwest;top=0;left=0;right=0;bottom=0;labelBackgroundColor=none;rounded=1;strokeColor=#909090;fontColor=#1A1A1A;" parent="TqMfUqlv04EFE84Wg3QB-2" vertex="1">
          <mxGeometry y="85" width="250" height="40" as="geometry" />
        </mxCell>
        <mxCell id="TqMfUqlv04EFE84Wg3QB-10" value="" style="shape=partialRectangle;overflow=hidden;connectable=0;fillColor=none;top=0;left=0;bottom=0;right=0;labelBackgroundColor=none;rounded=1;strokeColor=#909090;fontColor=#1A1A1A;" parent="TqMfUqlv04EFE84Wg3QB-9" vertex="1">
          <mxGeometry width="30" height="40" as="geometry">
            <mxRectangle width="30" height="40" as="alternateBounds" />
          </mxGeometry>
        </mxCell>
        <mxCell id="TqMfUqlv04EFE84Wg3QB-11" value="Marca" style="shape=partialRectangle;overflow=hidden;connectable=0;fillColor=none;top=0;left=0;bottom=0;right=0;align=left;spacingLeft=6;labelBackgroundColor=none;rounded=1;strokeColor=#909090;fontColor=#1A1A1A;" parent="TqMfUqlv04EFE84Wg3QB-9" vertex="1">
          <mxGeometry x="30" width="220" height="40" as="geometry">
            <mxRectangle width="220" height="40" as="alternateBounds" />
          </mxGeometry>
        </mxCell>
        <mxCell id="TqMfUqlv04EFE84Wg3QB-12" value="" style="shape=partialRectangle;collapsible=0;dropTarget=0;pointerEvents=0;fillColor=none;points=[[0,0.5],[1,0.5]];portConstraint=eastwest;top=0;left=0;right=0;bottom=0;labelBackgroundColor=none;rounded=1;strokeColor=#909090;fontColor=#1A1A1A;" parent="TqMfUqlv04EFE84Wg3QB-2" vertex="1">
          <mxGeometry y="125" width="250" height="30" as="geometry" />
        </mxCell>
        <mxCell id="TqMfUqlv04EFE84Wg3QB-13" value="" style="shape=partialRectangle;overflow=hidden;connectable=0;fillColor=none;top=0;left=0;bottom=0;right=0;labelBackgroundColor=none;rounded=1;strokeColor=#909090;fontColor=#1A1A1A;" parent="TqMfUqlv04EFE84Wg3QB-12" vertex="1">
          <mxGeometry width="30" height="30" as="geometry">
            <mxRectangle width="30" height="30" as="alternateBounds" />
          </mxGeometry>
        </mxCell>
        <mxCell id="TqMfUqlv04EFE84Wg3QB-14" value="Modelo" style="shape=partialRectangle;overflow=hidden;connectable=0;fillColor=none;top=0;left=0;bottom=0;right=0;align=left;spacingLeft=6;labelBackgroundColor=none;rounded=1;strokeColor=#909090;fontColor=#1A1A1A;" parent="TqMfUqlv04EFE84Wg3QB-12" vertex="1">
          <mxGeometry x="30" width="220" height="30" as="geometry">
            <mxRectangle width="220" height="30" as="alternateBounds" />
          </mxGeometry>
        </mxCell>
        <mxCell id="TqMfUqlv04EFE84Wg3QB-72" value="Motos" style="shape=table;startSize=25;container=1;collapsible=1;childLayout=tableLayout;fixedRows=1;rowLines=0;fontStyle=1;align=center;resizeLast=1;labelBackgroundColor=none;rounded=1;fillColor=#F5AB50;strokeColor=#909090;fontColor=#1A1A1A;" parent="1" vertex="1">
          <mxGeometry x="-500" y="700" width="250" height="155" as="geometry" />
        </mxCell>
        <mxCell id="TqMfUqlv04EFE84Wg3QB-73" value="" style="shape=partialRectangle;collapsible=0;dropTarget=0;pointerEvents=0;fillColor=none;points=[[0,0.5],[1,0.5]];portConstraint=eastwest;top=0;left=0;right=0;bottom=1;labelBackgroundColor=none;rounded=1;strokeColor=#909090;fontColor=#1A1A1A;" parent="TqMfUqlv04EFE84Wg3QB-72" vertex="1">
          <mxGeometry y="25" width="250" height="30" as="geometry" />
        </mxCell>
        <mxCell id="TqMfUqlv04EFE84Wg3QB-74" value="PK" style="shape=partialRectangle;overflow=hidden;connectable=0;fillColor=none;top=0;left=0;bottom=0;right=0;fontStyle=1;labelBackgroundColor=none;rounded=1;strokeColor=#909090;fontColor=#1A1A1A;" parent="TqMfUqlv04EFE84Wg3QB-73" vertex="1">
          <mxGeometry width="30" height="30" as="geometry">
            <mxRectangle width="30" height="30" as="alternateBounds" />
          </mxGeometry>
        </mxCell>
        <mxCell id="TqMfUqlv04EFE84Wg3QB-75" value="id_motos" style="shape=partialRectangle;overflow=hidden;connectable=0;fillColor=none;top=0;left=0;bottom=0;right=0;align=left;spacingLeft=6;fontStyle=5;labelBackgroundColor=none;rounded=1;strokeColor=#909090;fontColor=#1A1A1A;" parent="TqMfUqlv04EFE84Wg3QB-73" vertex="1">
          <mxGeometry x="30" width="220" height="30" as="geometry">
            <mxRectangle width="220" height="30" as="alternateBounds" />
          </mxGeometry>
        </mxCell>
        <mxCell id="TqMfUqlv04EFE84Wg3QB-76" value="" style="shape=partialRectangle;collapsible=0;dropTarget=0;pointerEvents=0;fillColor=none;points=[[0,0.5],[1,0.5]];portConstraint=eastwest;top=0;left=0;right=0;bottom=0;labelBackgroundColor=none;rounded=1;strokeColor=#909090;fontColor=#1A1A1A;" parent="TqMfUqlv04EFE84Wg3QB-72" vertex="1">
          <mxGeometry y="55" width="250" height="30" as="geometry" />
        </mxCell>
        <mxCell id="TqMfUqlv04EFE84Wg3QB-77" value="FK" style="shape=partialRectangle;overflow=hidden;connectable=0;fillColor=none;top=0;left=0;bottom=0;right=0;labelBackgroundColor=none;rounded=1;strokeColor=#909090;fontColor=#1A1A1A;" parent="TqMfUqlv04EFE84Wg3QB-76" vertex="1">
          <mxGeometry width="30" height="30" as="geometry">
            <mxRectangle width="30" height="30" as="alternateBounds" />
          </mxGeometry>
        </mxCell>
        <mxCell id="TqMfUqlv04EFE84Wg3QB-78" value="id_tipo_vehiculo" style="shape=partialRectangle;overflow=hidden;connectable=0;fillColor=none;top=0;left=0;bottom=0;right=0;align=left;spacingLeft=6;labelBackgroundColor=none;rounded=1;strokeColor=#909090;fontColor=#1A1A1A;" parent="TqMfUqlv04EFE84Wg3QB-76" vertex="1">
          <mxGeometry x="30" width="220" height="30" as="geometry">
            <mxRectangle width="220" height="30" as="alternateBounds" />
          </mxGeometry>
        </mxCell>
        <mxCell id="TqMfUqlv04EFE84Wg3QB-79" value="" style="shape=partialRectangle;collapsible=0;dropTarget=0;pointerEvents=0;fillColor=none;points=[[0,0.5],[1,0.5]];portConstraint=eastwest;top=0;left=0;right=0;bottom=0;labelBackgroundColor=none;rounded=1;strokeColor=#909090;fontColor=#1A1A1A;" parent="TqMfUqlv04EFE84Wg3QB-72" vertex="1">
          <mxGeometry y="85" width="250" height="40" as="geometry" />
        </mxCell>
        <mxCell id="TqMfUqlv04EFE84Wg3QB-80" value="" style="shape=partialRectangle;overflow=hidden;connectable=0;fillColor=none;top=0;left=0;bottom=0;right=0;labelBackgroundColor=none;rounded=1;strokeColor=#909090;fontColor=#1A1A1A;" parent="TqMfUqlv04EFE84Wg3QB-79" vertex="1">
          <mxGeometry width="30" height="40" as="geometry">
            <mxRectangle width="30" height="40" as="alternateBounds" />
          </mxGeometry>
        </mxCell>
        <mxCell id="TqMfUqlv04EFE84Wg3QB-81" value="Marca" style="shape=partialRectangle;overflow=hidden;connectable=0;fillColor=none;top=0;left=0;bottom=0;right=0;align=left;spacingLeft=6;labelBackgroundColor=none;rounded=1;strokeColor=#909090;fontColor=#1A1A1A;" parent="TqMfUqlv04EFE84Wg3QB-79" vertex="1">
          <mxGeometry x="30" width="220" height="40" as="geometry">
            <mxRectangle width="220" height="40" as="alternateBounds" />
          </mxGeometry>
        </mxCell>
        <mxCell id="TqMfUqlv04EFE84Wg3QB-82" value="" style="shape=partialRectangle;collapsible=0;dropTarget=0;pointerEvents=0;fillColor=none;points=[[0,0.5],[1,0.5]];portConstraint=eastwest;top=0;left=0;right=0;bottom=0;labelBackgroundColor=none;rounded=1;strokeColor=#909090;fontColor=#1A1A1A;" parent="TqMfUqlv04EFE84Wg3QB-72" vertex="1">
          <mxGeometry y="125" width="250" height="30" as="geometry" />
        </mxCell>
        <mxCell id="TqMfUqlv04EFE84Wg3QB-83" value="" style="shape=partialRectangle;overflow=hidden;connectable=0;fillColor=none;top=0;left=0;bottom=0;right=0;labelBackgroundColor=none;rounded=1;strokeColor=#909090;fontColor=#1A1A1A;" parent="TqMfUqlv04EFE84Wg3QB-82" vertex="1">
          <mxGeometry width="30" height="30" as="geometry">
            <mxRectangle width="30" height="30" as="alternateBounds" />
          </mxGeometry>
        </mxCell>
        <mxCell id="TqMfUqlv04EFE84Wg3QB-84" value="Modelo" style="shape=partialRectangle;overflow=hidden;connectable=0;fillColor=none;top=0;left=0;bottom=0;right=0;align=left;spacingLeft=6;labelBackgroundColor=none;rounded=1;strokeColor=#909090;fontColor=#1A1A1A;" parent="TqMfUqlv04EFE84Wg3QB-82" vertex="1">
          <mxGeometry x="30" width="220" height="30" as="geometry">
            <mxRectangle width="220" height="30" as="alternateBounds" />
          </mxGeometry>
        </mxCell>
        <mxCell id="TqMfUqlv04EFE84Wg3QB-85" value="Carro particukar" style="shape=table;startSize=25;container=1;collapsible=1;childLayout=tableLayout;fixedRows=1;rowLines=0;fontStyle=1;align=center;resizeLast=1;labelBackgroundColor=none;rounded=1;fillColor=#F5AB50;strokeColor=#909090;fontColor=#1A1A1A;" parent="1" vertex="1">
          <mxGeometry x="-500" y="440" width="250" height="155" as="geometry" />
        </mxCell>
        <mxCell id="TqMfUqlv04EFE84Wg3QB-86" value="" style="shape=partialRectangle;collapsible=0;dropTarget=0;pointerEvents=0;fillColor=none;points=[[0,0.5],[1,0.5]];portConstraint=eastwest;top=0;left=0;right=0;bottom=1;labelBackgroundColor=none;rounded=1;strokeColor=#909090;fontColor=#1A1A1A;" parent="TqMfUqlv04EFE84Wg3QB-85" vertex="1">
          <mxGeometry y="25" width="250" height="30" as="geometry" />
        </mxCell>
        <mxCell id="TqMfUqlv04EFE84Wg3QB-87" value="PK" style="shape=partialRectangle;overflow=hidden;connectable=0;fillColor=none;top=0;left=0;bottom=0;right=0;fontStyle=1;labelBackgroundColor=none;rounded=1;strokeColor=#909090;fontColor=#1A1A1A;" parent="TqMfUqlv04EFE84Wg3QB-86" vertex="1">
          <mxGeometry width="30" height="30" as="geometry">
            <mxRectangle width="30" height="30" as="alternateBounds" />
          </mxGeometry>
        </mxCell>
        <mxCell id="TqMfUqlv04EFE84Wg3QB-88" value="id_carro_particular" style="shape=partialRectangle;overflow=hidden;connectable=0;fillColor=none;top=0;left=0;bottom=0;right=0;align=left;spacingLeft=6;fontStyle=5;labelBackgroundColor=none;rounded=1;strokeColor=#909090;fontColor=#1A1A1A;" parent="TqMfUqlv04EFE84Wg3QB-86" vertex="1">
          <mxGeometry x="30" width="220" height="30" as="geometry">
            <mxRectangle width="220" height="30" as="alternateBounds" />
          </mxGeometry>
        </mxCell>
        <mxCell id="TqMfUqlv04EFE84Wg3QB-89" value="" style="shape=partialRectangle;collapsible=0;dropTarget=0;pointerEvents=0;fillColor=none;points=[[0,0.5],[1,0.5]];portConstraint=eastwest;top=0;left=0;right=0;bottom=0;labelBackgroundColor=none;rounded=1;strokeColor=#909090;fontColor=#1A1A1A;" parent="TqMfUqlv04EFE84Wg3QB-85" vertex="1">
          <mxGeometry y="55" width="250" height="30" as="geometry" />
        </mxCell>
        <mxCell id="TqMfUqlv04EFE84Wg3QB-90" value="FK" style="shape=partialRectangle;overflow=hidden;connectable=0;fillColor=none;top=0;left=0;bottom=0;right=0;labelBackgroundColor=none;rounded=1;strokeColor=#909090;fontColor=#1A1A1A;" parent="TqMfUqlv04EFE84Wg3QB-89" vertex="1">
          <mxGeometry width="30" height="30" as="geometry">
            <mxRectangle width="30" height="30" as="alternateBounds" />
          </mxGeometry>
        </mxCell>
        <mxCell id="TqMfUqlv04EFE84Wg3QB-91" value="id_tipo_vehiculo" style="shape=partialRectangle;overflow=hidden;connectable=0;fillColor=none;top=0;left=0;bottom=0;right=0;align=left;spacingLeft=6;labelBackgroundColor=none;rounded=1;strokeColor=#909090;fontColor=#1A1A1A;" parent="TqMfUqlv04EFE84Wg3QB-89" vertex="1">
          <mxGeometry x="30" width="220" height="30" as="geometry">
            <mxRectangle width="220" height="30" as="alternateBounds" />
          </mxGeometry>
        </mxCell>
        <mxCell id="TqMfUqlv04EFE84Wg3QB-92" value="" style="shape=partialRectangle;collapsible=0;dropTarget=0;pointerEvents=0;fillColor=none;points=[[0,0.5],[1,0.5]];portConstraint=eastwest;top=0;left=0;right=0;bottom=0;labelBackgroundColor=none;rounded=1;strokeColor=#909090;fontColor=#1A1A1A;" parent="TqMfUqlv04EFE84Wg3QB-85" vertex="1">
          <mxGeometry y="85" width="250" height="40" as="geometry" />
        </mxCell>
        <mxCell id="TqMfUqlv04EFE84Wg3QB-93" value="" style="shape=partialRectangle;overflow=hidden;connectable=0;fillColor=none;top=0;left=0;bottom=0;right=0;labelBackgroundColor=none;rounded=1;strokeColor=#909090;fontColor=#1A1A1A;" parent="TqMfUqlv04EFE84Wg3QB-92" vertex="1">
          <mxGeometry width="30" height="40" as="geometry">
            <mxRectangle width="30" height="40" as="alternateBounds" />
          </mxGeometry>
        </mxCell>
        <mxCell id="TqMfUqlv04EFE84Wg3QB-94" value="Marca" style="shape=partialRectangle;overflow=hidden;connectable=0;fillColor=none;top=0;left=0;bottom=0;right=0;align=left;spacingLeft=6;labelBackgroundColor=none;rounded=1;strokeColor=#909090;fontColor=#1A1A1A;" parent="TqMfUqlv04EFE84Wg3QB-92" vertex="1">
          <mxGeometry x="30" width="220" height="40" as="geometry">
            <mxRectangle width="220" height="40" as="alternateBounds" />
          </mxGeometry>
        </mxCell>
        <mxCell id="TqMfUqlv04EFE84Wg3QB-95" value="" style="shape=partialRectangle;collapsible=0;dropTarget=0;pointerEvents=0;fillColor=none;points=[[0,0.5],[1,0.5]];portConstraint=eastwest;top=0;left=0;right=0;bottom=0;labelBackgroundColor=none;rounded=1;strokeColor=#909090;fontColor=#1A1A1A;" parent="TqMfUqlv04EFE84Wg3QB-85" vertex="1">
          <mxGeometry y="125" width="250" height="30" as="geometry" />
        </mxCell>
        <mxCell id="TqMfUqlv04EFE84Wg3QB-96" value="" style="shape=partialRectangle;overflow=hidden;connectable=0;fillColor=none;top=0;left=0;bottom=0;right=0;labelBackgroundColor=none;rounded=1;strokeColor=#909090;fontColor=#1A1A1A;" parent="TqMfUqlv04EFE84Wg3QB-95" vertex="1">
          <mxGeometry width="30" height="30" as="geometry">
            <mxRectangle width="30" height="30" as="alternateBounds" />
          </mxGeometry>
        </mxCell>
        <mxCell id="TqMfUqlv04EFE84Wg3QB-97" value="Modelo" style="shape=partialRectangle;overflow=hidden;connectable=0;fillColor=none;top=0;left=0;bottom=0;right=0;align=left;spacingLeft=6;labelBackgroundColor=none;rounded=1;strokeColor=#909090;fontColor=#1A1A1A;" parent="TqMfUqlv04EFE84Wg3QB-95" vertex="1">
          <mxGeometry x="30" width="220" height="30" as="geometry">
            <mxRectangle width="220" height="30" as="alternateBounds" />
          </mxGeometry>
        </mxCell>
        <mxCell id="TqMfUqlv04EFE84Wg3QB-98" value="" style="edgeStyle=entityRelationEdgeStyle;fontSize=12;html=1;endArrow=ERoneToMany;startArrow=ERmandOne;rounded=1;entryX=1.02;entryY=-0.054;entryDx=0;entryDy=0;entryPerimeter=0;exitX=0;exitY=0.5;exitDx=0;exitDy=0;labelBackgroundColor=none;fontColor=default;strokeColor=#182E3E;" parent="1" source="NVIgVe-odFlYylcZKT-Y-24" target="TqMfUqlv04EFE84Wg3QB-92" edge="1">
          <mxGeometry width="100" height="100" relative="1" as="geometry">
            <mxPoint x="-200" y="600" as="sourcePoint" />
            <mxPoint x="-100" y="500" as="targetPoint" />
          </mxGeometry>
        </mxCell>
        <mxCell id="TqMfUqlv04EFE84Wg3QB-99" value="" style="edgeStyle=entityRelationEdgeStyle;fontSize=12;html=1;endArrow=ERoneToMany;startArrow=ERmandOne;rounded=1;entryX=1.01;entryY=0.236;entryDx=0;entryDy=0;entryPerimeter=0;exitX=0.003;exitY=0.094;exitDx=0;exitDy=0;exitPerimeter=0;labelBackgroundColor=none;fontColor=default;strokeColor=#182E3E;" parent="1" source="NVIgVe-odFlYylcZKT-Y-33" target="TqMfUqlv04EFE84Wg3QB-79" edge="1">
          <mxGeometry width="100" height="100" relative="1" as="geometry">
            <mxPoint x="30" y="780" as="sourcePoint" />
            <mxPoint x="130" y="680" as="targetPoint" />
          </mxGeometry>
        </mxCell>
        <mxCell id="TqMfUqlv04EFE84Wg3QB-100" value="" style="edgeStyle=entityRelationEdgeStyle;fontSize=12;html=1;endArrow=ERoneToMany;startArrow=ERmandOne;rounded=1;exitX=0;exitY=0.5;exitDx=0;exitDy=0;entryX=1;entryY=0.5;entryDx=0;entryDy=0;labelBackgroundColor=none;fontColor=default;strokeColor=#182E3E;" parent="1" source="NVIgVe-odFlYylcZKT-Y-42" target="TqMfUqlv04EFE84Wg3QB-9" edge="1">
          <mxGeometry width="100" height="100" relative="1" as="geometry">
            <mxPoint x="-180" y="1090" as="sourcePoint" />
            <mxPoint x="130" y="680" as="targetPoint" />
          </mxGeometry>
        </mxCell>
        <mxCell id="TqMfUqlv04EFE84Wg3QB-101" value="" style="edgeStyle=entityRelationEdgeStyle;fontSize=12;html=1;endArrow=ERmandOne;startArrow=ERmandOne;rounded=1;exitX=1;exitY=0.5;exitDx=0;exitDy=0;entryX=0;entryY=0.5;entryDx=0;entryDy=0;labelBackgroundColor=none;fontColor=default;strokeColor=#182E3E;" parent="1" source="NVIgVe-odFlYylcZKT-Y-8" target="_qoiSgvuRi4t9chzAt19-1" edge="1">
          <mxGeometry width="100" height="100" relative="1" as="geometry">
            <mxPoint x="860" y="1085" as="sourcePoint" />
            <mxPoint x="1010" y="730" as="targetPoint" />
            <Array as="points">
              <mxPoint x="990" y="870" />
              <mxPoint x="1080" y="950" />
            </Array>
          </mxGeometry>
        </mxCell>
      </root>
    </mxGraphModel>
  </diagram>
</mxfile>
